<?xml version="1.0" standalone="no"?>
<!DOCTYPE svg PUBLIC "-//W3C//DTD SVG 20010904//EN"
 "http://www.w3.org/TR/2001/REC-SVG-20010904/DTD/svg10.dtd">
<svg version="1.0" xmlns="http://www.w3.org/2000/svg"
 width="1440.000000pt" height="1440.000000pt" viewBox="0 0 1440.000000 1440.000000"
 preserveAspectRatio="xMidYMid meet">
<metadata>
Created by potrace 1.11, written by Peter Selinger 2001-2013
</metadata>
<g transform="translate(0.000000,1440.000000) scale(0.100000,-0.100000)"
fill="#000000" stroke="none">
<path d="M2815 13150 c3 -5 1 -10 -6 -10 -7 0 -10 -3 -7 -6 4 -3 0 -17 -7 -31
-8 -15 -12 -30 -9 -35 3 -4 0 -8 -6 -8 -6 0 -9 -4 -6 -8 3 -5 -1 -20 -9 -35
-7 -14 -11 -28 -7 -31 3 -3 0 -6 -7 -6 -7 0 -9 -5 -6 -10 4 -6 1 -17 -5 -25
-6 -8 -9 -19 -5 -25 3 -5 2 -10 -3 -10 -9 0 -39 -108 -34 -122 1 -5 -3 -8 -9
-8 -5 0 -8 -4 -5 -9 4 -5 0 -12 -6 -14 -10 -4 -9 -6 1 -6 9 -1 10 -5 4 -13 -9
-11 -23 -52 -29 -83 -1 -5 -3 -12 -4 -15 -1 -3 -4 -16 -5 -30 -1 -14 -7 -36
-12 -50 -6 -14 -9 -29 -6 -33 3 -4 1 -13 -4 -20 -5 -7 -10 -27 -12 -46 -2 -19
-6 -44 -11 -55 -4 -12 -6 -29 -5 -38 2 -10 0 -18 -4 -18 -3 0 -7 -17 -8 -37
-1 -21 -5 -72 -8 -113 -4 -41 -8 -87 -8 -102 0 -16 -5 -28 -11 -28 -7 0 -8 -3
-1 -8 13 -9 16 -42 4 -42 -6 0 -5 -9 1 -20 8 -15 8 -20 -2 -20 -9 0 -9 -3 0
-12 7 -7 8 -17 1 -30 -7 -13 -6 -18 3 -18 8 0 9 -3 3 -8 -12 -8 -13 -22 -3
-37 4 -6 3 -17 -2 -25 -5 -9 -5 -19 2 -27 7 -9 7 -13 -1 -13 -8 0 -9 -5 -1
-19 7 -14 7 -22 0 -26 -6 -4 -8 -11 -4 -16 9 -15 22 -121 27 -226 1 -18 6 -33
10 -33 5 0 5 -5 2 -10 -4 -6 -1 -18 7 -27 11 -14 11 -16 -1 -8 -11 6 -12 5 -5
-6 9 -15 13 -30 17 -71 1 -16 6 -28 10 -28 5 0 7 -6 4 -12 -2 -7 2 -28 10 -45
7 -18 10 -33 7 -33 -4 0 -1 -6 5 -14 6 -7 8 -22 4 -31 -5 -14 -3 -16 7 -10 10
6 12 4 7 -8 -3 -10 -3 -17 2 -17 4 0 8 -7 9 -15 1 -8 3 -22 4 -30 1 -8 5 -15
11 -15 5 0 7 -6 5 -12 -3 -7 1 -24 8 -37 7 -14 11 -28 8 -33 -3 -4 1 -11 10
-14 8 -3 12 -12 10 -19 -3 -7 0 -16 5 -20 6 -3 9 -11 6 -16 -4 -5 -2 -9 4 -9
8 0 18 -19 26 -50 5 -18 20 -46 27 -51 5 -3 10 -16 13 -28 2 -13 10 -30 16
-37 7 -8 22 -34 34 -57 28 -55 48 -89 60 -102 6 -6 19 -28 30 -48 11 -20 23
-37 27 -37 5 0 8 -6 8 -13 0 -7 9 -19 19 -27 11 -7 18 -17 15 -21 -2 -4 5 -14
16 -22 11 -7 18 -16 15 -18 -2 -3 15 -26 38 -51 23 -25 43 -49 44 -53 1 -4 16
-23 35 -43 18 -20 45 -51 59 -69 15 -18 29 -30 33 -26 3 3 6 1 6 -6 0 -18 252
-261 271 -261 5 0 9 -7 9 -16 0 -9 5 -14 11 -12 6 2 26 -10 44 -27 43 -40 103
-88 126 -99 11 -5 19 -13 19 -18 0 -5 5 -6 10 -3 6 3 10 -1 10 -9 0 -9 7 -16
15 -16 9 0 18 -7 21 -15 4 -8 10 -12 15 -10 5 3 18 -5 30 -19 12 -14 26 -23
31 -20 4 3 8 0 8 -5 0 -6 6 -11 14 -11 8 0 17 -7 20 -16 4 -9 9 -14 12 -11 3
3 29 -12 57 -34 29 -21 58 -39 65 -39 6 0 12 -5 12 -12 0 -6 3 -9 6 -5 3 3 11
1 18 -4 23 -21 116 -78 116 -72 0 4 11 -4 25 -17 14 -13 25 -20 25 -16 0 4 13
-2 29 -13 16 -12 34 -21 40 -21 6 0 11 -4 11 -10 0 -5 8 -10 18 -10 17 0 19
10 18 118 -1 64 -5 123 -9 130 -5 7 -4 12 2 12 13 0 10 22 -4 32 -7 5 -6 8 0
8 13 0 7 68 -7 76 -5 3 -4 12 3 20 9 11 9 14 0 14 -9 0 -9 5 -1 20 6 11 7 20
3 20 -4 0 -9 28 -11 62 -2 34 -8 68 -14 75 -7 9 -7 13 1 13 7 0 9 5 6 10 -7
11 -17 70 -18 108 -1 12 -4 22 -7 22 -5 0 -10 37 -13 88 0 6 -3 12 -7 12 -3 0
-7 16 -8 37 -2 20 -6 41 -10 47 -3 6 -7 16 -8 21 -1 6 -5 26 -9 45 -4 19 -8
43 -9 53 0 9 -5 17 -10 17 -5 0 -6 3 -3 7 4 3 2 12 -4 20 -6 7 -9 13 -6 13 3
0 -3 26 -14 58 -11 31 -22 65 -24 75 -2 9 -7 23 -12 30 -4 6 -8 18 -9 25 -2 8
-10 29 -19 48 -9 19 -18 42 -20 52 -2 9 -18 49 -36 87 -18 39 -32 73 -31 78 1
4 -2 7 -7 7 -9 0 -35 58 -32 73 0 4 -3 7 -9 7 -5 0 -10 9 -10 19 0 11 -3 21
-7 23 -8 3 -73 106 -73 114 0 3 -7 12 -15 21 -8 8 -13 19 -10 24 4 5 1 9 -4 9
-6 0 -11 7 -11 16 0 8 -4 13 -9 10 -5 -3 -14 7 -20 22 -10 24 -25 45 -71 100
-6 6 -7 12 -3 12 4 0 -3 7 -15 16 -12 8 -22 19 -22 24 0 9 -26 41 -77 95 -13
13 -23 26 -23 29 0 3 -29 35 -65 72 -36 36 -63 69 -59 73 4 3 9 0 11 -6 3 -7
10 -13 17 -13 7 0 23 -9 36 -20 13 -11 29 -20 37 -20 8 0 11 -4 8 -10 -3 -5 1
-10 10 -10 8 0 18 -7 21 -15 4 -8 10 -12 15 -9 5 3 9 0 9 -5 0 -6 6 -11 13
-11 6 -1 30 -19 52 -40 22 -22 46 -40 53 -40 7 0 10 -4 7 -10 -3 -5 -2 -10 4
-10 6 0 44 -34 86 -75 41 -41 72 -75 69 -75 -3 0 8 -12 25 -26 17 -14 31 -30
31 -34 0 -5 10 -20 23 -33 36 -38 57 -67 57 -77 0 -6 6 -13 14 -16 8 -3 17
-13 20 -22 10 -27 36 -68 36 -57 0 6 8 -6 17 -25 10 -19 20 -37 24 -40 10 -8
53 -94 51 -102 -1 -5 2 -8 8 -8 5 0 10 -7 10 -15 0 -8 5 -15 11 -15 6 0 9 -7
6 -15 -4 -8 -2 -17 4 -21 11 -7 33 -55 31 -67 -1 -4 5 -10 13 -13 8 -3 13 -10
10 -14 -3 -5 -1 -11 4 -15 6 -3 8 -12 4 -20 -3 -8 0 -15 6 -15 6 0 11 -11 11
-25 0 -14 5 -25 10 -25 6 0 10 -9 10 -19 0 -11 5 -23 10 -26 6 -4 8 -10 5 -15
-3 -5 -1 -11 5 -15 6 -4 8 -11 5 -16 -4 -5 0 -9 7 -9 9 0 9 -3 -2 -10 -13 -8
-12 -10 3 -10 10 0 16 -4 12 -9 -3 -5 -1 -20 4 -33 23 -57 30 -80 33 -110 1
-10 6 -18 10 -18 4 0 5 -6 2 -14 -3 -8 -1 -17 4 -20 6 -3 8 -15 5 -26 -3 -11
-1 -20 4 -20 7 0 13 -22 16 -67 0 -7 3 -13 7 -13 3 0 7 -10 7 -22 4 -53 8 -78
15 -78 4 0 7 -9 7 -20 1 -11 1 -29 2 -40 0 -11 5 -20 11 -20 7 0 7 -4 -1 -13
-6 -8 -7 -17 -2 -23 5 -5 11 -27 12 -49 1 -22 5 -44 8 -50 3 -5 7 -23 8 -40 5
-78 11 -127 17 -132 3 -3 1 -12 -5 -20 -7 -8 -8 -13 -1 -13 5 0 9 -18 8 -40
-1 -23 2 -40 8 -40 6 0 4 -5 -4 -10 -8 -5 -10 -10 -5 -10 6 0 10 -12 9 -27 -1
-16 3 -34 9 -40 5 -7 5 -13 0 -13 -5 0 -8 -12 -7 -27 1 -16 3 -28 4 -28 1 0 3
-8 5 -17 2 -10 -2 -18 -8 -18 -8 0 -8 -3 -2 -8 6 -4 11 -18 13 -31 3 -17 0
-21 -10 -16 -10 6 -10 5 -1 -5 9 -10 6 -22 -18 -56 -16 -23 -29 -45 -29 -48 0
-9 -65 -111 -73 -114 -4 -2 -5 -7 -2 -12 3 -5 -1 -15 -9 -22 -7 -8 -17 -25
-21 -38 -4 -14 -11 -27 -16 -30 -4 -3 -9 -12 -11 -20 -2 -8 -9 -21 -16 -28 -7
-8 -10 -18 -7 -23 4 -5 2 -9 -4 -9 -5 0 -15 -16 -22 -35 -7 -19 -17 -35 -22
-35 -4 0 -6 -4 -2 -9 3 -5 -3 -17 -12 -27 -10 -10 -17 -20 -16 -23 5 -11 -8
-41 -17 -41 -5 0 -7 -7 -4 -15 4 -8 1 -15 -7 -15 -7 0 -9 -3 -6 -7 4 -3 1 -13
-5 -21 -7 -8 -13 -21 -15 -30 -1 -9 -6 -18 -12 -20 -5 -2 -8 -9 -5 -16 3 -8
-2 -21 -11 -30 -9 -9 -14 -16 -11 -16 5 0 -33 -97 -60 -155 -8 -17 -16 -42
-19 -55 -3 -14 -9 -26 -14 -28 -6 -2 -7 -10 -4 -19 4 -11 2 -14 -5 -9 -8 4
-10 2 -6 -7 3 -8 0 -18 -5 -22 -6 -3 -9 -11 -5 -16 3 -5 1 -15 -4 -22 -6 -7
-13 -24 -15 -37 -2 -14 -9 -38 -16 -55 -7 -16 -13 -38 -14 -47 -1 -10 -5 -18
-10 -18 -5 0 -7 -7 -4 -15 4 -8 2 -17 -4 -20 -5 -4 -7 -11 -4 -16 4 -5 2 -9
-3 -9 -5 0 -9 -6 -10 -12 0 -7 -3 -24 -7 -38 -3 -14 -7 -30 -9 -37 -1 -7 -5
-16 -9 -19 -4 -4 -7 -20 -7 -36 0 -15 -4 -28 -9 -28 -4 0 -6 -12 -3 -26 3 -19
1 -25 -6 -20 -8 5 -10 2 -6 -8 3 -9 1 -16 -5 -16 -6 0 -8 -8 -5 -17 5 -15 4
-15 -4 -3 -6 8 -9 17 -6 21 2 4 0 10 -6 14 -6 4 -8 11 -5 16 4 5 1 9 -5 9 -6
0 -9 4 -5 9 3 5 -3 17 -12 27 -10 10 -16 18 -14 18 3 1 2 10 -1 21 -2 11 -5
24 -6 29 0 5 -5 12 -11 16 -6 3 -13 15 -15 26 -2 11 -21 56 -42 100 -22 43
-38 82 -36 87 1 4 -3 7 -8 7 -6 0 -10 7 -10 15 0 8 -4 15 -8 15 -5 0 -15 18
-22 41 -8 23 -19 43 -26 46 -7 3 -10 12 -7 20 5 12 3 14 -7 8 -8 -5 -11 -3 -8
6 3 8 0 19 -6 26 -22 24 -31 39 -34 53 -2 8 -7 17 -11 20 -5 3 -19 26 -33 52
-14 26 -28 45 -32 41 -3 -3 -6 1 -6 11 0 9 -5 22 -10 29 -39 47 -50 62 -55 78
-4 11 -10 19 -15 19 -5 0 -11 8 -14 18 -3 9 -17 29 -31 45 -14 15 -23 27 -20
27 3 0 -6 11 -20 25 -14 14 -25 29 -25 33 0 4 -14 23 -31 42 -17 19 -47 54
-67 78 -20 24 -50 58 -67 75 -16 18 -29 35 -28 39 2 4 -5 9 -15 13 -9 3 -30
23 -47 45 -16 21 -36 39 -43 40 -7 0 -10 5 -7 10 3 6 -1 10 -9 10 -9 0 -16 8
-16 17 0 9 -3 14 -6 11 -3 -3 -23 12 -44 33 -21 21 -44 39 -51 39 -7 0 -9 3
-6 6 3 4 -10 19 -31 34 -20 15 -54 44 -76 64 -21 20 -44 36 -52 36 -7 0 -15 9
-19 19 -4 12 -12 18 -21 14 -9 -3 -14 1 -14 13 0 9 -3 15 -6 11 -4 -3 -12 -1
-20 6 -32 29 -44 37 -52 37 -5 0 -17 9 -27 20 -10 11 -24 20 -32 20 -7 0 -13
5 -13 10 0 6 -7 10 -15 10 -8 0 -15 5 -15 10 0 6 -6 10 -13 10 -7 0 -23 9 -34
19 -12 11 -24 17 -27 14 -3 -4 -6 -1 -6 6 0 7 -4 9 -10 6 -6 -3 -10 -1 -10 4
0 6 -7 11 -15 11 -8 0 -15 5 -15 10 0 6 -9 10 -21 10 -11 0 -17 5 -14 10 3 6
-1 10 -10 10 -14 0 -53 18 -65 30 -12 12 -51 30 -64 30 -8 0 -16 4 -18 8 -4
11 -94 52 -113 52 -9 0 -13 5 -10 10 4 6 -5 10 -19 10 -14 0 -26 5 -26 10 0 6
-7 10 -15 10 -8 0 -23 4 -33 9 -32 17 -117 53 -129 55 -7 1 -16 5 -19 9 -4 4
-16 7 -26 7 -10 0 -18 5 -18 11 0 5 -4 8 -9 4 -5 -3 -13 0 -16 6 -4 5 -13 8
-21 5 -8 -3 -14 -1 -14 4 0 6 -4 10 -9 10 -5 0 -22 5 -38 12 -15 6 -34 12 -41
14 -7 1 -25 10 -39 19 -17 12 -23 13 -18 4 6 -10 2 -9 -11 2 -10 8 -26 15 -34
14 -8 0 -18 3 -21 8 -3 4 -16 9 -27 10 -12 1 -22 5 -22 9 0 4 -8 8 -18 8 -10
0 -23 5 -30 12 -7 7 -12 9 -12 5 0 -4 -13 -1 -29 8 -17 8 -38 17 -48 19 -40 9
-63 19 -63 27 0 5 -7 6 -15 3 -8 -4 -15 -1 -15 4 0 6 -9 9 -20 7 -11 -2 -20 0
-20 6 0 5 -9 9 -19 9 -11 0 -22 4 -25 9 -5 8 -64 25 -79 22 -4 0 -7 3 -7 8 0
9 -48 26 -62 23 -5 -1 -8 3 -8 9 0 5 -4 7 -10 4 -5 -3 -10 -1 -10 4 0 6 -3 10
-7 9 -9 -1 -40 9 -65 23 -10 5 -25 9 -33 9 -10 0 -13 5 -9 12 4 7 3 8 -4 4 -6
-4 -29 3 -52 14 -22 11 -40 18 -40 14 0 -3 -7 2 -16 11 -9 9 -23 14 -30 11 -8
-3 -14 1 -14 10 0 8 -5 12 -10 9 -6 -3 -17 1 -26 9 -8 9 -24 16 -35 16 -10 0
-19 5 -19 11 0 5 -5 7 -10 4 -6 -3 -10 -1 -10 4 0 6 -9 11 -19 11 -11 0 -21 4
-23 8 -1 5 -30 23 -63 41 -33 18 -77 43 -97 54 -21 11 -38 24 -38 29 0 4 -6 8
-13 8 -7 0 -23 9 -35 20 -12 11 -25 20 -29 20 -5 0 -15 9 -22 19 -8 11 -20 17
-28 14 -7 -3 -13 2 -13 11 0 9 -7 16 -15 16 -8 0 -15 3 -15 8 0 4 -18 18 -39
32 -22 13 -38 28 -35 32 3 4 0 8 -6 8 -6 0 -32 22 -58 48 -56 57 -87 73 -77
41 5 -14 2 -25 -6 -30 -10 -6 -10 -9 -2 -9 9 0 10 -7 3 -24 -5 -13 -9 -33 -8
-43 0 -10 -3 -49 -7 -88 -4 -38 -8 -98 -8 -132 -1 -35 -4 -63 -7 -63 -3 0 -6
-11 -6 -25 -1 -16 2 -22 10 -18 7 4 7 2 -1 -8 -16 -19 -16 -537 0 -556 6 -9 6
-13 -2 -13 -8 0 -9 -6 -3 -17 4 -10 8 -48 8 -85 -1 -36 2 -64 5 -62 5 3 12
-72 11 -118 -1 -10 2 -18 6 -18 4 0 7 -18 6 -40 0 -23 3 -43 8 -46 4 -3 5 -16
2 -30 -3 -13 -2 -24 4 -24 5 0 8 -12 6 -27 -1 -15 2 -33 8 -40 8 -10 7 -13 -3
-13 -11 0 -11 -2 1 -10 8 -5 11 -10 6 -10 -5 0 -2 -8 5 -17 12 -14 12 -15 1
-9 -12 7 -12 4 -1 -15 7 -13 13 -36 12 -51 0 -16 4 -28 9 -28 5 0 7 -9 3 -19
-3 -11 -1 -22 5 -26 6 -3 8 -11 5 -16 -4 -5 -2 -9 3 -9 5 0 9 -10 8 -22 0 -20
15 -84 32 -128 3 -8 6 -24 8 -35 1 -10 7 -21 13 -23 8 -3 8 -9 0 -25 -7 -12
-8 -19 -4 -14 10 8 37 -62 29 -75 -3 -4 0 -8 6 -8 6 0 8 -4 5 -10 -3 -5 -2
-10 3 -10 4 0 15 -23 22 -51 8 -27 18 -52 22 -55 4 -3 8 -14 8 -25 0 -10 4
-19 10 -19 5 0 9 -3 8 -7 0 -5 2 -16 5 -25 4 -10 10 -26 14 -35 3 -10 5 -21 5
-25 -1 -5 3 -8 8 -8 6 0 10 -7 10 -15 0 -9 7 -27 16 -40 9 -14 12 -25 8 -25
-5 0 -4 -4 2 -8 7 -4 26 -36 44 -72 36 -75 73 -143 80 -150 3 -3 11 -17 19
-32 8 -15 22 -36 31 -46 9 -9 15 -23 12 -30 -2 -6 1 -12 8 -12 6 0 8 -4 5 -10
-3 -5 0 -10 8 -10 8 0 18 -11 21 -25 4 -14 11 -25 16 -25 6 0 10 -5 10 -11 0
-6 6 -16 12 -23 7 -8 20 -24 28 -36 34 -50 85 -116 103 -132 11 -10 18 -18 14
-18 -6 0 35 -50 76 -91 15 -16 27 -31 27 -34 0 -7 247 -255 254 -255 3 0 20
-16 39 -35 19 -19 39 -35 46 -35 7 0 10 -4 7 -8 -3 -5 12 -19 33 -33 22 -13
37 -27 34 -31 -2 -5 1 -8 8 -8 6 0 27 -13 46 -30 18 -16 38 -30 44 -30 6 0 7
-4 4 -10 -5 -8 9 -15 18 -8 2 2 37 -26 62 -49 7 -7 15 -9 19 -6 3 4 6 -1 6
-11 0 -9 4 -15 9 -12 5 4 11 3 13 -1 5 -13 83 -63 97 -63 7 0 9 -4 6 -10 -3
-5 -1 -10 5 -10 6 0 31 -14 56 -30 24 -17 44 -28 44 -25 0 3 9 -4 20 -15 12
-12 25 -18 30 -15 6 4 10 2 10 -3 0 -10 81 -58 93 -54 4 1 7 -3 7 -8 0 -6 7
-10 15 -10 8 0 15 -3 15 -8 0 -7 54 -34 65 -32 3 0 15 -9 27 -20 12 -11 30
-20 40 -20 10 0 18 -5 18 -11 0 -6 6 -9 13 -6 8 3 20 -3 27 -13 7 -10 19 -16
27 -13 7 3 13 0 13 -6 0 -6 9 -11 20 -11 11 0 20 -4 20 -10 0 -5 9 -10 20 -10
11 0 20 -4 20 -10 0 -5 11 -10 24 -10 13 0 26 -5 28 -11 2 -5 10 -11 18 -13 8
-1 41 -14 73 -29 32 -15 62 -27 67 -27 6 0 10 -5 10 -11 0 -5 4 -8 9 -4 5 3
13 0 16 -6 4 -5 13 -8 20 -5 8 3 15 1 17 -4 2 -6 15 -11 30 -12 15 -1 24 -6
22 -10 -4 -7 10 -12 19 -7 1 1 21 -8 43 -19 23 -12 44 -18 48 -15 3 4 6 1 6
-5 0 -6 7 -9 15 -6 8 4 15 1 15 -5 0 -6 8 -11 18 -11 10 0 23 -5 30 -12 7 -7
12 -9 12 -5 0 4 16 0 36 -8 20 -8 45 -15 55 -15 11 0 19 -4 19 -8 0 -5 7 -9
15 -10 8 -1 22 -3 30 -4 8 -1 15 -5 15 -10 0 -4 11 -8 24 -8 14 0 28 -4 31
-10 3 -5 19 -10 36 -10 16 0 29 -5 29 -11 0 -5 4 -8 9 -4 5 3 12 1 16 -4 3 -6
12 -8 20 -4 8 3 15 0 15 -7 0 -7 7 -10 15 -7 8 4 17 2 21 -4 3 -6 12 -8 20 -5
7 3 16 1 19 -4 3 -5 12 -7 20 -3 8 3 15 0 15 -5 0 -6 9 -9 20 -7 11 2 20 0 20
-6 0 -5 11 -9 23 -9 13 0 27 -3 31 -7 3 -4 14 -8 24 -9 21 -3 57 -12 57 -14 0
-1 10 -3 22 -6 12 -2 28 -5 35 -6 7 -2 13 7 14 20 1 12 -2 22 -6 22 -5 0 -7 8
-5 18 1 9 -4 28 -12 41 -12 18 -12 22 -2 15 12 -7 12 -5 1 9 -8 9 -11 21 -7
27 3 5 2 10 -3 10 -5 0 -9 6 -10 13 -1 6 -4 26 -6 44 -2 17 -8 37 -12 45 -5 7
-10 21 -11 30 -5 34 -8 43 -15 48 -4 3 -8 17 -10 30 -2 14 -9 34 -15 45 -6 11
-11 23 -12 28 -1 4 -2 9 -2 12 -1 3 -3 10 -4 15 -1 6 -3 19 -4 31 0 11 -5 17
-11 14 -6 -3 -7 1 -4 9 3 9 2 16 -3 16 -5 0 -10 6 -11 13 -3 36 -10 65 -18 78
-4 8 -9 21 -11 29 -1 8 -7 16 -13 18 -5 2 -8 7 -5 12 3 4 -2 21 -10 36 -8 16
-15 36 -15 44 0 8 -7 24 -15 34 -8 10 -12 23 -9 27 3 5 0 9 -6 9 -6 0 -8 5 -5
10 3 6 1 10 -5 10 -7 0 -10 7 -6 15 3 8 1 15 -5 15 -6 0 -9 7 -5 15 3 8 1 15
-5 15 -6 0 -7 4 -4 10 3 6 1 10 -4 10 -6 0 -11 9 -11 20 0 11 -5 20 -11 20 -5
0 -7 5 -4 10 3 6 1 10 -6 10 -7 0 -10 3 -6 6 3 3 -3 21 -14 40 -10 19 -19 40
-19 47 0 7 -8 22 -17 33 -10 10 -20 28 -21 39 -2 11 -8 22 -13 23 -5 2 -9 10
-9 18 0 19 -21 57 -38 67 -7 5 -10 12 -7 18 4 5 1 9 -5 9 -6 0 -9 4 -6 9 3 5
-1 14 -9 21 -8 7 -15 21 -15 31 0 11 -4 19 -8 19 -7 0 -28 34 -69 113 -8 15
-19 27 -24 27 -6 0 -7 4 -4 10 3 6 1 10 -4 10 -6 0 -11 7 -11 15 0 8 -5 15
-11 15 -5 0 -8 4 -5 8 3 5 -3 18 -14 29 -10 12 -27 37 -38 57 -11 19 -22 33
-26 29 -3 -3 -6 1 -6 9 0 9 -7 19 -16 22 -9 3 -14 12 -11 19 3 8 -4 19 -14 25
-10 7 -19 19 -19 28 0 8 -4 12 -10 9 -5 -3 -10 0 -10 8 0 8 -13 28 -30 45 -16
18 -30 34 -30 37 0 5 -23 33 -65 81 -11 12 -31 36 -45 53 -14 17 -55 63 -92
103 -38 39 -68 75 -68 80 0 4 -5 8 -11 8 -14 0 -39 25 -39 39 0 6 -4 11 -8 11
-4 0 -35 26 -69 58 -33 31 -79 73 -102 92 -23 19 -54 46 -70 60 -57 50 -71 60
-81 60 -6 0 -10 7 -10 16 0 8 -4 12 -10 9 -5 -3 -10 -3 -10 2 0 4 -18 19 -40
33 -22 13 -40 28 -40 32 0 4 -7 8 -15 8 -8 0 -15 4 -15 8 0 5 -12 15 -27 23
-15 8 -35 21 -44 29 -33 29 -44 36 -76 49 -18 7 -33 17 -33 21 0 8 -17 18 -87
54 -12 6 -24 18 -26 28 -4 15 -2 14 25 -2 17 -10 37 -16 44 -13 8 3 14 -1 14
-8 0 -7 3 -10 6 -6 4 3 19 0 34 -8 15 -8 30 -11 34 -8 3 4 6 1 6 -6 0 -7 4
-10 10 -6 5 3 17 1 27 -4 10 -5 34 -16 53 -24 19 -8 60 -26 90 -39 30 -14 70
-31 88 -39 17 -8 32 -18 32 -23 0 -4 7 -5 15 -2 9 3 18 -1 21 -9 4 -8 10 -13
14 -10 5 3 15 -1 23 -9 8 -8 35 -24 61 -36 25 -12 46 -26 46 -31 0 -5 3 -8 8
-8 21 4 32 -2 26 -13 -5 -7 -2 -9 9 -5 9 3 18 0 21 -9 3 -8 12 -14 21 -14 8 0
15 -4 15 -10 0 -5 6 -10 13 -10 8 0 22 -9 32 -20 10 -11 22 -20 28 -20 5 0 18
-9 28 -21 9 -11 20 -19 22 -17 3 2 21 -12 41 -29 19 -18 38 -33 41 -33 5 0 25
-17 88 -72 17 -16 34 -28 39 -28 4 0 8 -7 8 -15 0 -14 12 -19 33 -16 4 0 7 -4
7 -10 0 -14 25 -39 39 -39 6 0 11 -4 11 -9 0 -5 34 -43 75 -84 41 -42 75 -81
75 -87 0 -6 4 -8 10 -5 5 3 10 -1 10 -10 0 -9 5 -13 10 -10 6 3 10 -1 10 -9 0
-9 5 -16 10 -16 6 0 10 -7 10 -16 0 -8 5 -12 10 -9 6 3 10 -1 10 -9 0 -9 7
-16 16 -16 8 0 13 -4 10 -9 -3 -4 8 -21 24 -37 16 -16 30 -34 30 -39 0 -6 8
-18 18 -27 25 -24 40 -44 63 -83 12 -19 25 -35 30 -35 5 0 9 -9 9 -21 0 -11 4
-17 10 -14 5 3 10 0 10 -8 0 -8 9 -22 20 -32 11 -10 17 -21 15 -25 -3 -5 -2
-10 2 -12 13 -5 63 -83 63 -97 0 -7 4 -10 8 -7 5 3 15 -10 22 -29 8 -19 17
-35 22 -35 4 0 8 -9 8 -20 0 -11 5 -20 10 -20 6 0 10 -7 10 -15 0 -8 5 -15 11
-15 5 0 7 -4 4 -10 -3 -5 -1 -10 5 -10 6 0 8 -4 5 -10 -3 -5 -2 -10 3 -10 4 0
21 -27 37 -60 16 -33 33 -60 38 -60 5 0 7 -6 4 -14 -3 -8 1 -20 8 -26 8 -7 13
-16 10 -20 -3 -5 -2 -10 2 -12 11 -4 73 -128 73 -144 0 -8 5 -14 11 -14 5 0 7
-4 4 -10 -3 -6 -1 -10 5 -10 6 0 10 -6 9 -12 -3 -26 1 -39 11 -33 6 3 7 -1 4
-9 -3 -9 -1 -16 5 -16 6 0 11 -7 11 -15 0 -8 5 -24 10 -35 6 -11 15 -29 20
-40 6 -11 10 -27 10 -35 0 -8 5 -15 10 -15 6 0 10 -9 10 -19 0 -11 5 -23 10
-26 6 -4 8 -10 5 -15 -3 -5 -1 -11 5 -15 6 -4 8 -11 5 -16 -4 -5 -1 -9 5 -9 6
0 8 -4 5 -10 -3 -5 0 -10 7 -10 9 0 9 -3 -2 -10 -11 -7 -11 -10 -2 -10 7 0 10
-4 7 -10 -3 -6 -2 -10 3 -10 6 0 16 -23 23 -50 7 -28 16 -50 21 -50 4 0 8 -11
8 -25 0 -14 4 -25 10 -25 5 0 7 -6 4 -14 -3 -8 0 -17 5 -21 6 -3 9 -11 6 -16
-4 -5 -1 -9 5 -9 6 0 9 -4 6 -8 -3 -5 1 -20 9 -35 7 -14 11 -28 9 -30 -3 -2 1
-17 7 -33 14 -33 20 -53 21 -71 1 -7 5 -13 10 -13 4 0 8 -13 8 -28 0 -15 4
-32 9 -38 13 -13 21 -55 27 -149 5 -88 10 -120 18 -134 4 -5 2 -13 -4 -16 -8
-5 -8 -11 0 -20 7 -8 7 -15 1 -19 -6 -4 -4 -17 4 -33 11 -21 12 -29 2 -35 -7
-4 -7 -8 -2 -8 6 0 11 -15 12 -32 1 -18 5 -53 8 -78 3 -25 7 -61 9 -80 2 -19
4 -35 5 -35 4 0 10 -36 13 -75 2 -19 6 -37 10 -40 3 -3 9 -23 11 -45 2 -22 7
-47 10 -55 3 -8 9 -31 12 -50 3 -19 8 -46 11 -60 3 -14 6 -31 6 -37 1 -7 5
-13 9 -13 4 0 6 -9 4 -20 -2 -11 1 -20 6 -20 6 0 8 -4 5 -9 -3 -4 5 -47 18
-94 13 -47 21 -88 18 -91 -3 -3 0 -6 7 -6 7 0 11 -6 8 -14 -3 -8 -3 -17 1 -21
4 -4 7 -10 8 -13 0 -4 6 -20 12 -35 7 -16 10 -33 6 -38 -3 -5 0 -9 5 -9 6 0
11 -14 11 -31 0 -20 4 -28 12 -23 8 5 9 2 5 -9 -3 -10 -2 -17 3 -17 6 0 9 -3
8 -7 -3 -16 15 -83 23 -89 5 -3 9 -14 9 -25 0 -10 4 -19 10 -19 5 0 7 -6 4
-14 -3 -8 0 -17 5 -21 6 -3 9 -11 6 -16 -4 -5 -1 -9 4 -9 6 0 10 -3 10 -7 -1
-5 0 -11 1 -15 1 -5 3 -11 4 -15 1 -5 10 -26 19 -47 10 -22 20 -50 23 -63 4
-13 10 -26 15 -29 5 -3 7 -10 4 -15 -4 -5 -1 -9 4 -9 6 0 11 -11 11 -25 0 -14
3 -25 8 -25 8 0 32 -49 32 -67 0 -7 5 -13 10 -13 6 0 10 -7 10 -15 0 -8 9 -29
20 -47 11 -18 20 -41 20 -50 0 -10 5 -18 10 -18 6 0 10 -6 10 -14 0 -7 10 -26
22 -42 13 -16 16 -25 8 -20 -8 4 -6 0 4 -8 11 -9 16 -16 11 -16 -4 0 0 -10 11
-22 12 -14 14 -19 4 -13 -8 4 -5 -2 8 -14 12 -12 20 -26 18 -30 -3 -4 2 -17
12 -27 9 -11 33 -50 52 -87 19 -37 38 -67 41 -67 3 0 11 -16 19 -35 8 -19 17
-35 22 -35 4 0 8 -7 8 -15 0 -8 5 -15 10 -15 6 0 10 -7 10 -15 0 -8 5 -15 10
-15 6 0 10 -6 10 -13 0 -7 8 -22 18 -33 9 -10 23 -31 31 -46 8 -16 18 -28 23
-28 5 0 7 -4 4 -9 -3 -5 1 -11 9 -15 8 -3 15 -12 15 -21 0 -8 5 -15 10 -15 6
0 10 -7 10 -17 0 -9 3 -13 7 -10 3 4 13 -6 21 -21 8 -15 20 -37 27 -49 6 -13
15 -20 18 -16 4 3 7 -1 7 -10 0 -10 5 -17 10 -17 6 0 10 -4 10 -10 0 -5 8 -18
18 -28 36 -38 62 -72 54 -72 -4 0 1 -5 10 -11 10 -5 18 -17 18 -25 0 -8 5 -12
10 -9 5 3 10 2 10 -4 0 -10 33 -50 88 -108 12 -13 22 -27 22 -30 0 -4 20 -26
46 -50 25 -24 41 -43 37 -43 -4 0 12 -18 37 -40 25 -22 42 -40 38 -40 -4 0 4
-11 18 -25 14 -14 29 -25 34 -25 5 0 12 -9 15 -20 4 -11 11 -18 16 -15 5 4 9
0 9 -7 1 -7 19 -26 40 -43 21 -16 39 -36 40 -42 0 -7 4 -13 9 -13 5 0 41 -31
81 -70 40 -38 78 -66 83 -63 6 3 7 1 4 -4 -4 -6 5 -19 20 -28 14 -10 39 -30
54 -46 16 -16 31 -29 34 -29 4 0 12 -6 19 -12 45 -45 246 -198 259 -198 5 0 5
-6 1 -12 -4 -7 -4 -10 0 -6 8 7 101 -54 124 -81 9 -10 11 -11 6 -2 -5 9 2 8
19 -5 15 -10 27 -23 27 -27 0 -5 5 -5 10 -2 6 3 10 1 10 -4 0 -6 7 -11 15 -11
8 0 15 -4 15 -10 0 -5 5 -10 10 -10 12 0 71 -40 82 -55 4 -5 8 -6 8 -2 0 5 7
1 16 -7 8 -9 21 -16 28 -16 7 0 22 -9 34 -20 12 -12 22 -17 22 -13 0 4 4 3 8
-2 4 -6 33 -24 64 -40 32 -17 58 -34 58 -38 0 -5 4 -6 9 -3 5 3 14 -1 21 -9 7
-8 16 -12 21 -9 5 3 9 1 9 -4 0 -9 20 -18 44 -20 5 0 12 -4 15 -9 3 -5 17 -14
31 -21 14 -6 32 -16 40 -21 24 -15 123 -59 140 -63 8 -2 17 -5 20 -8 11 -11
73 -40 86 -40 8 0 14 -4 14 -8 0 -4 10 -8 22 -9 11 -1 24 -7 28 -13 4 -6 17
-12 28 -13 12 -1 22 -5 22 -10 0 -4 4 -6 9 -3 5 3 14 -1 21 -9 7 -8 16 -12 21
-9 5 2 34 -7 64 -21 31 -14 61 -23 66 -20 5 4 9 2 9 -3 0 -9 55 -26 73 -23 4
0 7 -3 7 -9 0 -5 11 -10 25 -10 14 0 25 -4 25 -8 0 -5 6 -9 13 -9 12 0 150
-39 177 -50 8 -4 22 -7 30 -7 8 -1 22 -6 30 -11 8 -5 23 -8 34 -6 10 1 16 -1
13 -6 -4 -5 10 -9 29 -8 20 0 38 -3 40 -7 3 -4 14 -8 25 -8 10 0 19 -4 19 -9
0 -5 8 -8 18 -6 9 1 23 -3 31 -9 12 -9 13 -8 7 2 -7 11 -4 12 10 4 11 -6 34
-12 53 -15 19 -3 38 -12 42 -19 6 -9 9 -9 9 -1 0 7 9 10 23 7 70 -17 107 -24
147 -30 24 -3 49 -8 54 -11 8 -6 56 -11 129 -16 15 -1 27 -4 27 -7 0 -3 12 -5
28 -6 66 -2 108 -9 114 -19 5 -6 8 -5 8 4 0 11 3 11 15 1 11 -9 15 -9 15 -1 0
7 5 9 13 4 14 -9 31 -11 177 -18 206 -11 230 -11 230 -1 0 7 3 8 8 1 9 -13
123 -15 115 -2 -4 6 -1 7 8 2 18 -12 90 -14 110 -4 9 5 20 4 26 -2 8 -8 17 -7
32 0 12 7 21 8 21 3 0 -11 30 -9 50 3 9 5 15 4 18 -3 2 -7 9 -9 15 -5 7 4 39
8 72 10 119 5 145 7 145 15 0 5 9 4 20 -2 11 -6 20 -7 20 -2 0 4 10 9 23 9 95
5 125 8 122 13 -2 4 12 6 31 5 19 -1 37 1 39 5 3 4 18 6 35 5 16 -1 30 0 30 4
0 3 21 7 46 9 25 1 55 7 66 13 16 9 19 8 13 -3 -6 -10 -5 -10 5 -1 7 6 19 9
26 6 8 -3 14 -1 14 5 0 6 11 9 25 7 14 -1 25 1 25 6 0 4 9 6 20 4 11 -2 20 2
20 8 0 7 4 6 10 -3 5 -8 10 -10 10 -3 0 6 8 10 18 8 9 -1 22 1 27 5 6 3 21 7
34 8 14 0 36 6 50 11 14 6 36 12 48 14 12 2 25 6 29 9 3 4 12 4 20 1 8 -3 14
-1 14 4 0 5 8 9 18 10 15 1 49 9 62 13 3 1 9 2 14 1 4 -1 14 4 22 10 8 6 14 8
14 4 0 -4 7 -2 16 6 8 7 25 14 37 15 33 3 79 14 91 22 6 4 14 7 19 8 4 1 9 3
12 4 3 1 8 3 13 4 6 1 73 25 122 43 8 3 20 7 26 8 6 2 27 10 46 19 19 9 45 18
58 21 14 3 26 9 28 14 2 6 9 8 17 5 7 -3 16 0 20 5 3 6 11 9 16 6 5 -4 9 -1 9
4 0 6 9 11 20 11 11 0 20 5 20 11 0 5 4 8 9 4 5 -3 12 -1 16 5 3 5 15 10 25
10 10 0 26 7 34 16 9 8 16 12 16 8 0 -3 6 -1 13 5 8 6 17 8 20 4 4 -3 7 -1 7
5 0 7 9 12 19 12 11 0 23 5 26 10 4 6 11 8 16 5 5 -4 9 -1 9 6 0 7 3 9 7 6 3
-4 12 1 20 11 10 11 12 12 8 2 -6 -13 -5 -13 7 0 7 8 20 16 28 18 8 2 18 9 22
15 4 7 8 9 8 4 0 -4 29 8 65 28 36 19 65 32 65 29 0 -3 7 1 15 8 33 30 50 43
52 41 6 -5 39 12 69 34 17 12 34 20 37 16 4 -3 7 -2 7 3 0 6 16 16 35 24 19 8
35 17 35 21 0 4 18 15 40 25 21 10 37 21 35 25 -3 4 6 10 20 13 14 4 25 11 25
17 0 6 5 7 10 4 6 -3 10 -3 10 2 0 4 23 21 50 38 28 16 50 33 50 37 0 4 7 8
15 8 8 0 15 4 15 8 0 5 16 16 35 25 19 9 35 21 35 27 0 5 7 10 15 10 9 0 18 7
21 15 4 8 11 15 18 15 6 0 26 14 43 31 18 16 33 27 33 23 0 -4 8 3 19 14 10
12 23 22 29 22 6 0 15 6 19 13 4 7 28 28 53 47 24 19 58 48 75 63 16 16 43 38
59 50 78 60 466 444 459 454 -1 1 15 20 35 42 20 21 55 60 77 86 22 26 46 54
53 61 6 7 12 15 12 18 0 3 10 16 23 29 34 37 57 67 50 67 -3 0 3 8 13 17 11
10 32 37 48 61 16 23 33 42 37 42 5 0 9 6 9 13 0 7 9 23 20 35 11 12 20 25 20
30 0 5 9 17 20 27 11 10 17 22 14 26 -3 5 -1 9 5 9 6 0 18 16 27 35 9 19 21
32 27 28 6 -4 8 0 4 10 -3 10 -2 17 4 17 5 0 16 15 24 32 7 18 25 46 39 62 13
17 23 33 20 37 -2 4 4 12 13 18 10 5 17 12 15 15 -4 10 59 116 69 116 4 0 6 6
3 13 -3 8 2 20 11 27 8 7 15 21 15 31 0 11 4 19 9 19 5 0 15 15 22 33 7 17 20
38 29 45 11 10 11 11 1 6 -9 -5 -6 4 7 23 12 17 19 33 15 37 -3 3 -1 6 5 6 6
0 13 13 17 30 4 16 11 30 16 30 5 0 9 9 9 20 0 11 5 20 12 20 6 0 8 3 5 6 -3
4 0 16 8 28 8 11 15 28 15 37 0 10 4 19 9 21 5 1 11 12 13 23 1 11 9 26 16 33
6 7 12 22 12 33 0 11 7 27 15 35 8 9 15 24 15 34 0 10 9 35 21 54 12 20 18 36
14 36 -4 0 -2 6 4 14 6 7 12 25 13 39 1 14 5 24 9 21 9 -5 21 25 13 37 -3 5 0
9 6 9 6 0 9 4 5 9 -3 5 -1 12 4 16 6 3 8 12 4 20 -3 8 0 15 7 15 7 0 10 7 6
15 -3 8 1 21 9 29 8 7 11 16 8 20 -3 3 0 12 7 21 7 8 10 15 6 15 -3 0 3 22 13
49 10 28 16 52 13 55 -3 4 0 6 6 6 6 0 9 9 7 20 -2 11 1 20 7 20 6 0 9 3 6 6
-4 3 -1 20 6 37 7 18 12 41 12 52 -1 11 2 22 6 25 4 3 9 19 12 35 2 17 5 30 6
30 2 0 6 18 15 64 3 19 9 39 12 44 3 6 7 22 9 36 1 14 3 26 4 26 1 0 3 9 5 20
2 11 6 34 10 50 3 17 7 37 8 45 2 9 6 21 10 27 4 6 1 14 -5 16 -8 3 -5 6 6 6
16 1 16 3 5 17 -7 9 -9 18 -3 22 10 7 17 47 18 99 1 17 4 29 9 26 10 -6 9 5
-4 29 -6 12 -7 18 -1 14 5 -3 12 3 15 14 3 11 0 20 -6 20 -9 0 -9 2 -1 8 6 4
10 19 10 35 -1 15 1 27 4 27 3 0 6 15 6 33 4 81 8 108 16 113 4 3 4 13 -2 23
-5 10 -7 21 -4 24 11 10 15 122 19 422 2 173 -1 307 -6 318 -7 12 -6 17 3 17
9 0 9 3 -2 10 -11 7 -11 10 -2 10 8 0 10 5 6 12 -4 6 -8 33 -9 58 -1 26 -5 52
-9 58 -4 7 -2 12 5 12 7 0 8 4 2 13 -5 6 -9 19 -8 27 1 8 -2 23 -7 32 -5 10
-4 19 2 23 8 5 8 11 1 19 -6 7 -8 16 -4 20 4 4 1 11 -7 16 -12 8 -12 10 -1 10
10 0 11 3 3 13 -7 8 -7 18 -2 27 5 9 5 19 -1 27 -6 6 -12 30 -14 51 -1 22 -6
50 -10 62 -5 15 -4 20 4 16 12 -8 4 21 -12 42 -6 8 -5 12 4 12 11 0 11 2 -1
10 -8 5 -11 10 -6 10 5 0 3 7 -4 15 -10 12 -10 15 1 15 9 0 10 3 4 8 -6 4 -12
23 -14 42 -1 19 -9 50 -17 68 -8 19 -9 30 -3 26 7 -4 7 2 -1 16 -6 12 -9 28
-6 36 3 8 1 14 -4 14 -6 0 -9 3 -9 8 1 4 0 10 -1 15 -1 4 -4 16 -5 27 -1 11
-3 21 -5 23 -2 3 -7 25 -11 57 -2 14 -7 27 -11 30 -4 3 -8 20 -10 38 -1 18 -5
32 -9 32 -4 0 -7 10 -7 23 0 22 -3 37 -16 72 -5 11 -12 32 -17 46 -6 14 -9 30
-7 35 1 5 -3 19 -10 31 -6 12 -13 30 -15 40 -1 10 -6 24 -10 31 -5 6 -6 12 -2
12 3 0 0 10 -7 23 -7 12 -11 26 -10 31 2 4 -2 14 -9 22 -6 7 -8 18 -4 24 3 5
2 10 -3 10 -4 0 -15 23 -22 50 -7 27 -18 50 -23 50 -6 0 -7 3 -4 7 4 3 2 12
-4 20 -6 7 -8 13 -4 13 4 0 3 6 -2 13 -6 6 -16 30 -23 52 -7 22 -16 42 -19 45
-12 10 -32 52 -22 46 7 -4 8 -1 5 8 -3 9 -11 16 -17 16 -6 0 -8 3 -4 6 3 4 -3
24 -14 45 -11 22 -17 39 -14 39 3 0 -3 9 -14 21 -11 12 -17 27 -14 35 3 8 0
14 -6 14 -6 0 -11 8 -11 19 0 10 -7 24 -15 31 -8 6 -14 15 -13 18 1 4 -3 17
-10 28 -6 12 -8 24 -5 28 3 3 1 6 -5 6 -7 0 -12 7 -12 15 0 8 -4 15 -10 15 -5
0 -10 9 -10 20 0 11 -3 20 -8 20 -4 0 -13 15 -21 33 -8 17 -23 44 -33 60 -11
15 -17 27 -14 27 8 0 -46 84 -56 88 -5 2 -8 11 -8 20 0 10 -11 30 -25 46 -14
17 -28 40 -31 53 -4 13 -10 23 -15 23 -5 0 -9 7 -9 15 0 8 -5 15 -11 15 -5 0
-7 5 -4 10 3 6 2 10 -4 10 -5 0 -22 22 -38 50 -15 27 -31 50 -35 50 -5 0 -8 7
-8 15 0 8 -4 15 -10 15 -5 0 -10 6 -10 14 0 8 -10 22 -22 30 -12 9 -18 16 -13
16 6 0 6 3 0 8 -6 4 -24 27 -40 52 -29 44 -35 52 -64 86 -39 46 -81 105 -81
115 0 5 -4 7 -10 4 -5 -3 -10 -1 -10 5 0 10 -18 32 -73 88 -12 12 -18 22 -14
22 4 0 -25 33 -63 73 -38 39 -70 78 -70 85 0 7 -4 10 -10 7 -5 -3 -10 1 -10 9
0 9 -7 16 -17 16 -9 0 -14 3 -11 6 6 5 -77 94 -87 94 -3 0 -5 -5 -5 -12 0 -12
3 -15 65 -80 20 -21 33 -38 29 -38 -4 0 5 -11 20 -25 14 -13 26 -28 26 -32 0
-5 9 -15 20 -23 11 -8 20 -20 20 -26 0 -7 7 -15 16 -18 9 -4 14 -9 11 -13 -4
-3 6 -17 21 -32 15 -14 34 -39 42 -54 8 -16 25 -39 38 -53 14 -13 21 -24 17
-24 -5 0 2 -8 13 -19 12 -10 22 -22 22 -25 0 -4 7 -14 15 -23 8 -8 13 -18 10
-23 -3 -4 2 -11 11 -14 8 -3 13 -10 10 -14 -3 -5 4 -15 15 -22 10 -8 19 -22
19 -32 0 -10 7 -18 16 -18 8 0 13 -4 10 -9 -3 -5 1 -14 9 -21 8 -7 12 -16 9
-21 -3 -5 -1 -9 3 -9 5 0 17 -17 28 -37 11 -21 24 -41 30 -45 5 -4 6 -8 2 -8
-5 0 -2 -7 5 -15 32 -36 39 -47 43 -67 3 -11 10 -28 18 -37 7 -9 22 -34 32
-56 11 -22 22 -42 25 -45 3 -3 18 -32 35 -65 16 -33 34 -63 39 -67 6 -4 7 -10
4 -14 -4 -4 2 -20 13 -35 11 -16 17 -29 13 -29 -3 0 -1 -6 5 -13 6 -8 8 -17 4
-20 -3 -4 -1 -7 5 -7 7 0 12 -8 12 -19 0 -10 7 -24 15 -31 9 -7 14 -19 11 -27
-3 -7 -1 -13 5 -13 6 0 9 -6 6 -14 -3 -8 0 -17 8 -19 7 -3 16 -21 20 -39 4
-18 12 -39 17 -45 6 -7 7 -13 3 -13 -5 0 -1 -8 8 -18 10 -10 14 -21 11 -24 -3
-4 0 -17 7 -30 7 -12 14 -25 15 -28 0 -3 4 -14 8 -25 29 -75 34 -93 29 -99 -4
-3 -1 -6 6 -6 7 0 10 -4 6 -9 -3 -5 0 -13 6 -16 5 -4 8 -13 5 -21 -3 -7 -1
-16 5 -19 5 -4 7 -11 4 -16 -4 -5 -2 -9 4 -9 5 0 8 -9 6 -20 -2 -11 1 -20 6
-20 6 0 8 -3 6 -8 -3 -4 0 -18 6 -32 5 -14 12 -34 14 -44 2 -11 10 -40 19 -64
8 -25 12 -52 10 -59 -4 -8 -1 -11 5 -8 6 4 10 1 8 -6 -3 -28 1 -40 12 -33 8 5
9 2 1 -11 -7 -14 -5 -27 9 -52 11 -19 14 -31 8 -27 -8 4 -9 -1 -3 -17 4 -13 7
-32 6 -41 0 -10 4 -18 9 -18 6 0 7 -5 4 -10 -4 -6 -1 -18 7 -27 11 -14 11 -16
-2 -8 -12 6 -13 5 -2 -6 6 -7 12 -30 12 -51 0 -21 4 -38 8 -38 5 0 8 -16 7
-36 0 -19 2 -37 6 -40 4 -2 6 -20 5 -39 -1 -19 2 -36 5 -37 4 -2 8 -21 10 -43
1 -22 7 -48 12 -59 7 -14 6 -16 -4 -11 -8 6 -10 4 -4 -5 8 -13 11 -32 19 -120
2 -19 4 -35 5 -35 2 0 4 -10 5 -22 2 -13 -2 -23 -8 -23 -6 0 -4 -5 4 -10 8 -5
11 -10 6 -10 -5 0 -3 -7 4 -15 7 -8 8 -15 3 -15 -6 0 -7 -18 -3 -44 3 -24 6
-69 5 -100 -1 -31 2 -56 8 -56 6 0 5 -5 -1 -13 -7 -8 -7 -18 -2 -27 5 -8 6
-19 3 -24 -10 -15 -10 -56 0 -56 4 0 3 -9 -3 -19 -6 -13 -6 -21 0 -23 7 -2 7
-14 1 -36 -5 -18 -6 -32 -1 -32 9 0 6 -33 -5 -50 -3 -6 -1 -10 5 -10 6 0 8 -5
3 -12 -11 -19 -12 -37 -2 -44 5 -3 6 -10 2 -17 -4 -6 -8 -55 -9 -109 -1 -56
-7 -104 -13 -112 -9 -11 -9 -16 0 -22 8 -5 9 -3 4 6 -5 9 -4 11 4 6 9 -6 9
-11 0 -22 -6 -8 -9 -14 -5 -14 3 0 1 -12 -4 -26 -7 -18 -7 -23 1 -18 8 4 8 0
0 -15 -9 -16 -9 -21 1 -21 10 0 10 -2 -1 -9 -7 -5 -10 -14 -7 -20 4 -6 3 -11
-1 -11 -5 0 -7 -16 -5 -35 3 -23 0 -35 -8 -35 -10 0 -9 -4 1 -16 7 -9 9 -18 3
-22 -5 -4 -10 -23 -12 -42 -2 -34 -9 -75 -12 -75 -1 0 -3 -18 -6 -40 -7 -74
-10 -90 -15 -100 -3 -5 -6 -23 -7 -40 -2 -30 -9 -70 -12 -70 -1 0 -6 -17 -13
-47 -1 -7 -6 -18 -10 -25 -4 -6 -3 -14 3 -18 6 -4 7 -12 3 -18 -7 -12 -10 -23
-16 -62 -2 -11 -6 -27 -10 -35 -4 -8 -9 -26 -11 -40 -6 -29 -20 -82 -35 -128
-5 -18 -10 -35 -11 -37 -9 -49 -14 -65 -22 -65 -5 0 -7 -4 -3 -10 3 -5 -1 -25
-9 -44 -8 -19 -12 -36 -10 -39 2 -2 -3 -21 -11 -42 -9 -20 -14 -39 -11 -42 3
-3 -1 -12 -9 -19 -8 -8 -12 -21 -9 -29 4 -9 0 -15 -8 -15 -9 0 -14 -9 -13 -22
2 -29 -14 -78 -26 -78 -5 0 -8 -3 -7 -7 4 -14 -26 -103 -35 -103 -4 0 -6 -4
-3 -9 3 -4 -3 -27 -14 -49 -11 -23 -20 -46 -20 -52 0 -5 -4 -10 -10 -10 -5 0
-7 -7 -4 -15 4 -8 1 -15 -5 -15 -6 0 -10 -3 -9 -7 1 -5 -6 -25 -15 -47 -9 -21
-17 -40 -17 -42 0 -12 -45 -100 -54 -106 -6 -4 -8 -8 -3 -8 4 0 1 -13 -8 -30
-8 -16 -16 -33 -16 -37 0 -5 -10 -19 -22 -32 -12 -13 -15 -20 -7 -16 9 5 7 -1
-5 -15 -12 -14 -14 -20 -5 -15 8 4 5 -2 -8 -14 -12 -12 -20 -26 -17 -32 4 -5
2 -9 -3 -9 -6 0 -13 -11 -16 -25 -4 -14 -10 -25 -15 -25 -5 0 -12 -13 -16 -30
-4 -16 -14 -34 -23 -40 -9 -5 -13 -10 -9 -10 5 0 -1 -13 -13 -30 -12 -17 -18
-30 -14 -30 4 0 0 -8 -8 -17 -8 -10 -26 -38 -39 -63 -13 -24 -32 -52 -42 -62
-10 -10 -15 -23 -12 -27 2 -5 -2 -11 -10 -15 -8 -3 -15 -12 -15 -19 0 -8 -11
-27 -25 -43 -14 -16 -25 -33 -25 -37 0 -5 -6 -15 -12 -22 -31 -34 -36 -43 -31
-49 4 -3 2 -6 -3 -6 -5 0 -18 -16 -28 -35 -11 -19 -23 -35 -28 -35 -5 0 -6 -4
-3 -10 3 -5 2 -10 -3 -10 -5 0 -26 -24 -46 -54 -21 -30 -46 -65 -57 -78 -10
-13 -22 -27 -27 -33 -4 -5 -10 -14 -12 -20 -2 -5 -14 -21 -26 -35 -13 -14 -32
-36 -43 -50 -71 -85 -98 -117 -118 -137 -12 -13 -20 -23 -17 -23 3 0 -15 -20
-40 -45 -26 -25 -45 -45 -43 -45 4 0 -189 -195 -277 -279 -31 -29 -56 -51 -56
-48 0 3 -19 -14 -42 -39 -24 -24 -49 -44 -55 -44 -7 0 -13 -8 -13 -17 0 -9 -3
-14 -6 -10 -3 3 -17 -4 -30 -16 -65 -59 -74 -67 -74 -61 0 4 -9 -3 -20 -16
-11 -13 -20 -20 -20 -16 0 4 -10 -3 -23 -16 -12 -13 -31 -29 -42 -36 -60 -38
-74 -49 -68 -55 3 -4 -1 -7 -10 -7 -9 0 -17 -5 -17 -11 0 -5 -4 -7 -10 -4 -5
3 -10 1 -10 -6 0 -7 -3 -10 -6 -6 -3 3 -18 -5 -31 -18 -14 -13 -37 -29 -52
-37 -14 -7 -31 -20 -38 -28 -7 -8 -13 -10 -13 -5 0 6 -3 6 -8 0 -8 -11 -101
-74 -142 -95 -13 -7 -31 -19 -38 -27 -8 -7 -18 -11 -23 -8 -5 4 -9 1 -9 -4 0
-6 -7 -11 -15 -11 -8 0 -15 -5 -15 -11 0 -5 -4 -7 -10 -4 -5 3 -10 3 -10 -2 0
-4 -15 -14 -32 -22 -18 -8 -35 -17 -38 -20 -3 -4 -27 -17 -55 -31 -27 -14 -53
-29 -56 -33 -3 -5 -10 -8 -15 -8 -10 1 -176 -79 -184 -88 -3 -4 -12 -6 -20 -6
-8 0 -21 -6 -28 -15 -8 -8 -11 -10 -7 -3 3 8 -9 5 -32 -6 -107 -53 -124 -60
-117 -49 4 6 -8 1 -26 -12 -18 -13 -30 -17 -25 -9 5 7 -2 5 -14 -6 -13 -11
-26 -19 -30 -19 -3 1 -17 -3 -31 -9 -14 -5 -33 -9 -42 -8 -10 1 -18 -3 -18 -8
0 -6 -3 -10 -7 -10 -5 1 -10 0 -13 -1 -3 -1 -13 -3 -22 -6 -33 -8 -43 -11 -73
-23 -16 -7 -43 -15 -60 -18 -16 -2 -34 -9 -39 -14 -6 -5 -20 -9 -33 -9 -13 0
-23 -6 -23 -12 0 -10 -3 -9 -9 1 -6 9 -11 10 -15 2 -4 -6 -12 -9 -17 -6 -5 4
-9 1 -9 -5 0 -7 -7 -10 -15 -6 -8 3 -15 0 -15 -7 0 -8 -4 -6 -10 3 -5 8 -10
10 -10 5 0 -6 -8 -12 -17 -13 -35 -4 -53 -8 -59 -15 -4 -4 -20 -7 -35 -7 -15
0 -30 -4 -34 -9 -3 -6 -13 -10 -23 -10 -20 1 -97 -9 -97 -12 0 -2 -47 -10 -68
-10 -9 0 -16 -3 -13 -7 2 -4 -17 -8 -42 -9 -25 -2 -49 -8 -53 -14 -5 -8 -8 -8
-14 0 -4 7 -12 8 -18 3 -7 -4 -19 -8 -27 -7 -8 1 -23 -2 -32 -7 -10 -5 -19 -4
-23 2 -4 7 -11 7 -18 2 -7 -5 -19 -9 -27 -9 -9 0 -28 -3 -44 -7 -20 -5 -26 -4
-20 5 5 8 3 9 -7 3 -18 -11 -30 -13 -111 -18 -37 -2 -71 -7 -77 -11 -6 -3 -11
0 -11 7 0 8 -3 9 -8 3 -8 -13 -22 -13 -41 -1 -10 6 -12 5 -7 -2 7 -12 -31 -14
-294 -14 -246 0 -271 2 -264 14 6 10 4 10 -7 2 -13 -11 -45 -11 -56 0 -3 2
-16 1 -29 -4 -13 -5 -24 -6 -24 -2 0 5 -10 8 -22 9 -96 2 -109 4 -102 14 4 8
0 8 -15 0 -12 -7 -26 -9 -31 -6 -5 3 -35 8 -67 10 -71 6 -84 8 -100 18 -8 5
-13 3 -13 -5 0 -8 -3 -9 -8 -3 -8 11 -12 12 -68 19 -22 2 -39 5 -39 6 0 1 -11
3 -25 5 -14 1 -36 5 -50 8 -14 3 -36 8 -50 11 -77 17 -127 28 -140 33 -8 4
-21 5 -27 4 -7 -1 -13 4 -13 11 0 9 -3 9 -10 -2 -5 -8 -10 -10 -10 -4 0 6 -6
11 -12 11 -18 1 -103 20 -103 23 0 1 -8 3 -17 5 -19 3 -85 23 -108 32 -8 4
-21 5 -27 4 -7 -1 -13 3 -13 9 0 5 -3 9 -7 8 -13 -3 -77 14 -89 24 -7 5 -23
11 -35 14 -33 7 -53 12 -59 14 -3 1 -8 2 -12 1 -5 0 -8 4 -8 10 0 5 -4 7 -10
4 -6 -3 -10 -2 -10 4 0 6 -7 7 -17 4 -12 -5 -14 -3 -8 7 5 8 4 11 -2 7 -6 -4
-28 1 -49 10 -22 9 -42 16 -46 15 -5 -1 -8 3 -8 9 0 5 -4 7 -10 4 -5 -3 -10
-1 -10 6 0 7 -3 10 -6 6 -4 -3 -19 0 -34 8 -15 8 -30 11 -34 8 -3 -4 -6 -1 -6
5 0 7 -6 12 -13 12 -7 0 -37 11 -65 25 -29 14 -57 25 -63 25 -5 0 -7 5 -3 12
4 6 3 8 -4 4 -6 -3 -14 -1 -17 5 -4 5 -13 8 -21 5 -8 -3 -14 1 -14 9 0 8 -8
12 -20 10 -12 -2 -20 2 -20 10 0 8 -6 12 -15 9 -7 -3 -29 6 -48 20 -19 14 -41
26 -50 26 -10 0 -17 4 -17 9 0 5 -16 15 -35 21 -21 7 -32 16 -29 22 4 6 2 8
-4 4 -6 -3 -13 -2 -17 4 -4 6 -11 8 -16 5 -5 -4 -9 -1 -9 4 0 6 -7 11 -15 11
-8 0 -15 4 -15 9 0 5 -11 12 -25 15 -14 4 -25 11 -25 17 0 6 -4 7 -10 4 -5 -3
-10 -1 -10 4 0 6 -7 11 -15 11 -8 0 -15 5 -15 10 0 6 -7 10 -15 10 -8 0 -15 5
-15 10 0 6 -7 10 -15 10 -8 0 -24 9 -35 20 -11 11 -27 20 -36 20 -9 0 -12 5
-8 12 5 8 2 9 -9 5 -12 -4 -17 -1 -17 10 0 9 -3 14 -6 10 -4 -3 -27 9 -51 28
-25 19 -49 32 -54 29 -5 -3 -9 1 -9 9 0 7 -11 19 -25 25 -14 6 -25 16 -25 22
0 6 -4 8 -10 5 -5 -3 -10 -1 -10 5 0 6 -4 9 -8 6 -5 -3 -15 4 -22 15 -8 10
-20 19 -26 19 -7 0 -14 3 -16 8 -1 4 -25 25 -53 47 -27 22 -58 46 -67 55 -36
32 -46 39 -52 33 -3 -4 -6 1 -6 10 0 8 -9 18 -19 22 -11 3 -22 12 -25 20 -3 8
-12 15 -21 15 -8 0 -14 6 -13 13 2 6 -3 11 -9 9 -7 -1 -13 5 -13 13 0 8 -5 15
-12 15 -6 0 -27 17 -47 38 -20 20 -55 54 -78 74 -23 20 -39 39 -35 42 3 3 -1
6 -10 6 -8 0 -20 11 -27 24 -7 13 -24 30 -37 37 -13 7 -22 14 -20 17 2 2 -14
22 -37 44 -23 23 -41 44 -40 49 2 4 -6 11 -17 14 -11 4 -20 11 -20 16 0 5 -15
25 -32 43 -18 19 -49 53 -68 76 -19 24 -39 48 -45 54 -5 6 -26 32 -45 56 -19
25 -38 47 -42 48 -4 2 -8 10 -8 17 0 7 -7 16 -16 19 -9 4 -14 9 -11 12 3 3 -2
14 -11 24 -29 32 -42 49 -42 55 0 6 -13 23 -42 56 -10 10 -18 23 -18 27 0 5
-9 17 -20 27 -11 10 -20 24 -20 32 0 7 -5 13 -11 13 -5 0 -8 4 -5 8 3 5 -5 19
-18 33 -12 13 -23 27 -24 31 -7 20 -38 68 -45 68 -5 0 -5 4 -2 10 3 5 2 10 -3
10 -6 0 -13 11 -16 24 -3 14 -12 31 -20 38 -7 8 -21 30 -31 48 -10 19 -24 43
-33 53 -8 9 -12 20 -9 24 4 3 -3 14 -15 24 -11 11 -18 19 -15 19 4 0 -23 59
-60 132 -36 72 -66 137 -66 145 0 7 -4 13 -9 13 -4 0 -8 7 -8 15 0 8 -5 15
-11 15 -5 0 -7 4 -4 10 3 5 0 20 -7 32 -7 13 -11 26 -10 31 1 4 -2 7 -8 7 -5
0 -10 7 -10 15 0 8 -4 23 -9 33 -20 37 -41 91 -41 104 0 7 -7 24 -16 36 -8 12
-12 27 -9 32 3 6 1 10 -4 10 -6 0 -10 3 -10 8 3 14 -14 73 -22 78 -5 3 -9 16
-9 30 0 13 -4 24 -8 24 -7 0 -11 16 -14 58 -1 6 -5 12 -9 12 -8 0 -24 68 -20
88 1 6 -3 12 -9 12 -6 0 -8 4 -5 10 3 5 3 16 -2 23 -4 6 -8 15 -9 20 -1 4 -2
8 -4 10 -1 1 -3 11 -5 22 -2 11 -5 29 -8 40 -3 11 -8 34 -12 50 -4 17 -12 36
-18 43 -6 8 -6 12 3 12 10 0 10 3 0 14 -6 8 -14 34 -16 57 -3 24 -9 50 -13 58
-5 9 -7 24 -6 34 2 9 -1 17 -7 17 -6 0 -6 6 2 15 10 12 9 16 -4 21 -13 5 -14
9 -5 20 9 11 9 14 0 14 -7 0 -9 5 -6 10 3 6 3 15 -1 22 -4 7 -9 30 -10 53 -1
22 -3 40 -4 40 -2 0 -8 42 -15 110 -3 28 -7 64 -10 80 -2 17 -5 46 -6 65 -1
19 -7 41 -12 48 -6 8 -6 12 2 12 8 0 9 5 2 18 -6 11 -6 24 -1 32 5 9 5 20 -2
27 -6 8 -8 16 -6 19 3 3 2 20 -2 39 -5 23 -4 36 4 39 7 3 6 5 -3 5 -11 1 -11
4 -1 16 7 8 9 15 4 15 -5 0 -9 82 -8 182 2 262 5 331 18 347 9 12 8 13 -4 6
-13 -7 -13 -6 -2 7 8 11 9 18 3 22 -7 5 -7 15 -1 31 5 14 7 25 4 25 -4 0 0 8
7 17 12 14 12 15 0 9 -10 -7 -12 -3 -6 13 4 14 2 21 -7 21 -9 1 -7 4 4 10 9 6
15 18 13 28 -1 9 2 25 7 36 8 14 7 17 -3 11 -9 -6 -10 -3 -5 11 5 10 9 28 10
39 1 11 4 25 8 30 3 6 4 18 2 29 -1 10 1 29 6 42 6 15 5 24 -3 28 -9 3 -8 5 1
5 7 1 10 6 7 11 -3 6 -2 10 2 10 5 0 8 14 7 30 -1 17 2 32 7 35 4 3 6 20 2 37
-4 21 -3 29 5 24 7 -4 9 2 6 18 -2 14 1 28 6 31 8 5 7 11 -1 21 -8 10 -8 14 0
14 6 0 11 11 11 24 0 14 4 27 8 30 5 3 9 19 10 36 0 16 4 35 8 41 4 7 8 28 10
47 2 20 7 38 11 41 4 3 9 13 9 21 3 25 12 62 27 112 8 26 12 49 9 52 -3 4 -1
6 4 6 5 0 11 9 12 20 4 44 6 50 14 50 5 0 6 5 3 10 -3 6 -2 10 3 10 5 0 9 6
10 13 3 38 10 65 22 87 15 27 17 31 19 56 0 8 5 13 10 10 5 -4 8 5 6 19 -1 14
1 25 5 25 7 0 24 57 21 73 0 4 4 7 10 7 5 0 7 5 4 10 -3 6 -1 10 5 10 6 0 9 4
5 9 -3 5 -1 12 5 16 6 4 8 11 5 16 -4 5 -1 9 4 9 6 0 10 3 9 8 -1 4 7 27 18
52 11 25 21 47 21 50 0 3 6 16 13 30 8 14 15 27 16 30 0 3 9 23 19 45 10 22
19 42 20 45 0 3 11 20 22 39 12 19 20 38 17 43 -3 4 0 8 5 8 6 0 11 7 11 15 0
8 4 15 10 15 5 0 9 3 8 8 -2 10 34 84 50 100 6 7 12 18 12 24 0 6 8 17 18 25
9 8 11 12 4 8 -7 -3 -1 10 13 31 14 20 25 43 25 51 0 8 5 11 10 8 6 -3 10 1
10 9 0 8 7 22 16 30 8 9 12 16 7 16 -4 0 -3 4 2 8 13 9 67 92 60 92 -3 0 3 9
12 19 34 38 42 49 36 55 -3 3 2 8 11 12 9 3 16 12 16 20 0 8 5 14 12 14 6 0 9
3 5 6 -3 3 5 18 19 33 13 14 27 34 30 44 3 9 10 17 15 17 5 0 9 7 9 15 0 8 4
15 8 15 5 0 24 21 42 48 19 26 37 49 40 52 3 3 28 33 55 67 28 35 54 63 58 63
5 0 5 5 2 10 -3 6 1 10 10 10 9 0 14 4 11 8 -3 5 6 19 19 30 14 12 25 27 25
33 0 5 5 7 10 4 6 -3 10 -2 10 2 0 5 20 31 45 57 25 27 45 53 45 59 0 6 3 7 7
4 3 -4 16 7 28 23 12 16 25 27 28 23 4 -3 7 0 8 8 0 8 27 37 59 66 32 28 56
54 52 57 -3 3 0 6 7 6 6 0 34 22 61 49 27 27 51 47 54 44 2 -3 9 5 16 16 6 12
15 19 21 16 5 -4 9 1 9 9 0 9 4 16 9 16 4 0 24 15 44 34 20 18 38 32 41 29 2
-3 11 4 18 16 7 12 16 21 20 21 10 0 42 26 82 65 17 17 32 28 34 27 4 -5 48
26 78 56 13 12 26 21 28 20 2 -2 16 7 29 19 14 12 27 20 29 17 2 -2 19 10 37
27 18 16 35 28 38 26 2 -3 16 6 30 19 14 13 29 21 33 19 4 -3 10 2 14 10 3 8
12 15 21 15 8 0 15 5 15 11 0 5 5 7 10 4 6 -3 10 -2 10 3 0 5 8 12 18 16 25 8
86 47 93 58 4 6 11 8 17 4 5 -3 12 1 16 9 3 8 12 15 20 15 8 0 29 12 48 27 22
18 28 21 18 8 -14 -19 -14 -19 5 -4 32 26 115 72 115 63 0 -4 8 0 18 8 9 9 27
19 40 22 12 4 22 12 22 17 0 6 4 8 9 4 5 -3 12 -1 16 5 4 6 11 8 16 5 5 -4 9
-1 9 4 0 6 9 11 20 11 11 0 20 5 20 11 0 5 4 8 9 5 5 -3 21 4 37 16 15 13 24
16 19 8 -8 -13 -7 -13 9 0 10 8 25 15 34 17 9 1 18 7 20 13 2 5 8 8 12 5 5 -3
25 4 45 15 20 11 34 17 31 12 -3 -5 22 4 55 20 32 15 70 29 83 30 14 1 22 6
20 10 -5 7 19 12 53 11 7 -1 11 3 8 7 -3 5 -1 11 5 15 5 3 10 0 10 -7 0 -10 2
-10 8 -1 4 7 23 15 42 18 19 3 39 10 46 15 6 6 14 7 17 3 4 -3 7 -1 7 5 0 6 7
9 15 6 8 -4 22 -1 30 6 8 6 19 9 25 5 5 -3 10 -1 10 6 0 7 3 9 6 6 4 -3 14 -2
24 3 9 5 28 11 41 14 13 3 35 8 49 11 14 4 31 7 38 7 6 1 12 4 12 8 0 6 16 8
80 13 17 1 30 6 30 11 0 4 9 6 20 3 11 -3 20 0 20 6 0 6 3 7 6 4 4 -3 15 -2
25 4 14 7 19 6 19 -3 0 -10 2 -10 9 0 7 11 59 23 109 25 6 0 12 3 12 7 0 3 16
6 35 5 19 -1 35 2 35 7 0 5 5 6 11 2 6 -3 15 0 20 7 6 10 9 10 9 2 0 -9 7 -10
25 -3 14 5 25 7 25 4 0 -2 9 0 20 6 15 8 20 8 20 -1 0 -8 4 -8 15 1 8 7 21 10
30 7 8 -4 17 -2 20 3 3 5 15 7 27 5 12 -3 27 0 35 6 9 9 13 8 13 0 0 -7 5 -9
10 -6 21 13 70 14 70 2 0 -8 3 -8 9 2 6 9 35 14 95 16 48 1 89 5 92 8 3 3 19
1 35 -3 16 -5 29 -5 29 0 0 5 9 8 20 7 11 -1 20 -5 20 -10 0 -6 5 -6 13 0 14
10 277 10 294 0 6 -4 14 -3 18 2 3 6 15 7 28 2 12 -5 32 -5 45 0 12 5 22 5 22
0 0 -4 18 -7 40 -6 38 1 60 -9 47 -22 -3 -3 -23 -6 -44 -7 -21 -1 -45 -6 -52
-11 -10 -6 -12 -4 -6 6 7 11 6 12 -6 2 -8 -7 -24 -12 -34 -12 -11 1 -31 -2
-45 -5 -14 -3 -37 -7 -52 -8 -16 -1 -28 -5 -28 -8 0 -4 -10 -6 -22 -5 -13 1
-43 -4 -68 -10 -25 -6 -51 -10 -57 -8 -7 3 -13 1 -13 -5 0 -5 -14 -8 -30 -7
-16 1 -30 -3 -30 -8 0 -5 -9 -7 -20 -4 -11 3 -22 1 -25 -4 -3 -4 -12 -6 -20
-2 -9 3 -15 -1 -15 -8 0 -11 -3 -11 -10 1 -7 11 -10 12 -10 2 0 -8 -6 -12 -13
-9 -6 2 -27 -2 -44 -10 -18 -7 -33 -10 -33 -7 0 4 -6 2 -13 -4 -7 -6 -29 -13
-49 -15 -20 -2 -43 -9 -51 -15 -8 -7 -16 -10 -19 -7 -2 3 -28 -4 -58 -15 -29
-11 -57 -17 -61 -14 -5 3 -9 1 -9 -3 0 -5 -9 -9 -20 -10 -11 -1 -34 -8 -50
-17 -21 -10 -30 -11 -30 -3 0 7 -4 6 -9 -2 -9 -13 -27 -20 -58 -23 -7 -1 -13
-5 -13 -10 0 -4 -3 -7 -7 -6 -5 1 -21 -4 -36 -10 -16 -7 -37 -12 -48 -12 -11
0 -18 -4 -15 -8 2 -4 -23 -16 -56 -26 -34 -10 -75 -26 -91 -37 -17 -10 -34
-16 -39 -13 -4 3 -8 0 -8 -5 0 -6 -3 -10 -7 -9 -5 1 -33 -9 -63 -24 -60 -28
-94 -41 -96 -36 -1 2 -11 -5 -21 -15 -11 -9 -23 -14 -26 -10 -4 3 -7 2 -7 -3
0 -6 -16 -16 -35 -24 -19 -8 -35 -18 -35 -22 0 -5 -5 -6 -12 -2 -6 4 -17 -1
-24 -10 -7 -10 -16 -18 -21 -18 -25 -3 -42 -12 -47 -24 -3 -7 -12 -11 -19 -8
-8 3 -21 -1 -28 -9 -8 -8 -31 -22 -52 -32 -20 -9 -37 -21 -37 -26 0 -5 -6 -9
-14 -9 -8 0 -21 -7 -30 -15 -8 -9 -17 -16 -18 -16 -16 1 -48 -13 -48 -21 0 -5
-4 -6 -10 -3 -5 3 -10 2 -10 -4 0 -6 -15 -17 -34 -26 -18 -9 -42 -24 -52 -33
-11 -9 -32 -24 -49 -32 -16 -8 -38 -23 -48 -33 -10 -10 -22 -15 -27 -12 -5 3
-11 -4 -15 -15 -4 -11 -10 -18 -14 -16 -4 3 -20 -6 -35 -19 -16 -14 -33 -22
-39 -18 -5 3 -7 1 -3 -5 3 -6 -3 -13 -14 -17 -11 -3 -20 -11 -20 -16 0 -6 -4
-7 -10 -4 -5 3 -10 2 -10 -2 0 -5 -25 -26 -56 -48 -30 -22 -65 -48 -76 -58
-12 -9 -25 -17 -30 -17 -5 0 -6 -4 -3 -10 3 -5 -1 -10 -9 -10 -9 0 -16 -4 -16
-10 0 -5 -6 -10 -13 -10 -7 0 -19 -9 -27 -20 -8 -11 -20 -20 -27 -20 -7 0 -18
-9 -25 -20 -7 -11 -17 -20 -21 -20 -5 0 -18 -11 -29 -25 -11 -14 -23 -23 -26
-21 -4 2 -13 -2 -20 -10 -7 -8 -10 -14 -6 -14 4 0 -6 -10 -22 -22 -16 -13 -30
-26 -32 -30 -2 -5 -10 -8 -18 -8 -8 0 -14 -7 -14 -17 0 -9 -3 -14 -6 -11 -3 3
-20 -9 -38 -28 -18 -19 -38 -34 -45 -34 -7 0 -9 -5 -6 -10 3 -6 -5 -14 -19
-20 -15 -5 -25 -15 -24 -22 2 -7 -1 -13 -7 -12 -5 0 -60 -50 -121 -113 -61
-62 -110 -113 -107 -113 2 0 -12 -15 -32 -32 -19 -18 -35 -39 -35 -46 0 -7 -4
-11 -8 -8 -5 3 -24 -14 -43 -37 -19 -23 -49 -57 -66 -76 -18 -20 -33 -39 -33
-43 0 -4 -7 -8 -16 -8 -8 0 -13 -4 -9 -9 3 -6 -4 -15 -16 -21 -11 -7 -19 -14
-16 -16 2 -3 -8 -18 -24 -35 -15 -16 -43 -49 -61 -71 -18 -23 -43 -52 -55 -65
-12 -13 -19 -23 -16 -23 3 0 -6 -11 -21 -25 -15 -14 -23 -25 -19 -25 4 0 1 -6
-7 -13 -21 -16 -64 -78 -53 -76 4 1 10 0 13 -1 3 -1 19 -3 35 -5 17 -1 53 -6
80 -10 28 -4 57 -7 65 -8 8 0 21 -4 28 -10 8 -6 12 -6 12 2 0 7 8 8 25 1 14
-5 25 -7 25 -4 0 4 6 1 14 -5 10 -9 16 -9 21 -1 4 7 11 8 19 1 11 -9 62 -18
136 -24 19 -1 41 -6 48 -10 7 -5 12 -3 12 4 0 8 6 7 18 -4 11 -10 22 -13 32
-7 8 5 18 6 22 4 10 -6 68 -13 158 -19 36 -2 65 -5 65 -5 0 -1 23 -4 50 -6 81
-7 130 -12 130 -14 0 -1 14 -2 32 -3 17 -1 29 2 26 7 -4 5 -1 6 6 2 7 -5 49
-10 94 -12 45 -2 88 -6 95 -9 6 -2 12 0 12 6 0 6 5 7 12 3 18 -11 91 -11 107
1 11 7 13 7 8 -1 -5 -8 11 -11 56 -9 34 1 68 -3 76 -9 9 -7 12 -7 9 -1 -4 7
47 10 153 10 87 0 159 2 159 5 0 3 21 4 47 3 27 0 54 3 61 9 8 7 12 7 12 0 0
-11 40 -10 60 3 9 6 11 4 5 -4 -6 -10 -3 -11 11 -3 11 5 24 7 31 5 7 -2 21 1
32 7 12 6 21 7 21 2 0 -5 18 -6 40 -2 22 4 40 5 40 2 0 -2 8 2 17 9 14 12 16
12 8 0 -6 -11 -4 -13 11 -6 17 7 94 16 152 18 12 1 22 3 22 7 0 3 15 6 33 6
48 2 101 9 112 15 6 3 29 5 52 5 22 -1 39 3 35 8 -3 5 2 7 11 3 10 -3 17 -3
17 1 0 5 10 9 23 9 26 2 77 10 127 19 19 3 43 7 53 7 9 1 17 4 17 7 0 5 27 10
68 13 6 0 12 3 12 6 0 5 21 9 73 14 9 1 17 5 17 10 0 4 5 5 10 2 6 -3 10 -2
10 3 0 5 11 7 25 4 16 -3 25 0 25 8 0 7 7 10 15 6 8 -3 15 -1 15 5 0 6 5 7 10
4 6 -4 17 -1 25 5 8 7 15 9 15 5 0 -4 6 -3 13 2 6 5 22 8 35 7 12 0 22 3 22 7
0 5 9 9 19 9 11 0 23 5 27 11 4 8 9 7 15 -2 6 -11 9 -10 15 4 3 9 10 14 15 12
5 -3 22 1 40 10 17 9 37 14 45 11 8 -3 17 1 20 9 4 8 9 13 13 11 3 -2 23 4 44
14 20 10 34 13 30 7 -4 -8 -1 -7 9 1 9 7 26 15 39 17 12 3 26 10 29 16 4 6 10
10 14 9 4 -1 21 4 39 11 18 7 37 13 43 13 6 1 18 6 25 12 8 6 31 17 52 25 20
7 37 17 37 22 0 4 5 5 10 2 6 -3 10 -1 10 5 0 6 4 9 9 6 12 -8 42 4 37 13 -3
4 5 8 16 8 12 1 24 7 28 13 4 7 9 10 11 9 5 -3 101 43 109 52 3 3 29 16 58 29
28 13 52 26 52 30 0 3 16 12 35 20 19 8 35 17 35 22 0 4 6 8 13 8 7 0 24 10
37 23 14 12 25 21 25 19 0 -10 53 19 58 32 4 9 15 16 27 16 11 0 25 9 32 20 7
11 20 20 29 20 9 0 20 7 23 16 4 9 9 14 12 11 3 -3 14 2 24 11 32 29 49 42 55
42 4 0 13 7 22 15 8 8 19 12 25 9 7 -4 8 -2 4 5 -4 6 0 14 11 18 9 4 28 18 40
31 13 14 23 21 23 17 0 -5 7 0 15 11 8 10 15 16 15 11 0 -4 21 13 46 38 26 24
52 42 58 38 6 -3 8 -3 4 1 -4 5 14 26 40 49 26 22 55 49 65 60 9 11 17 17 17
13 0 -3 56 50 125 120 69 69 125 130 125 135 0 6 4 8 9 4 5 -3 12 4 16 15 3
11 15 25 26 31 11 5 17 14 14 20 -4 5 -2 9 4 9 5 0 35 30 66 68 31 37 67 79
80 94 12 15 20 29 18 32 -3 2 5 10 17 16 12 6 19 14 17 17 -5 4 0 11 51 67 12
14 22 29 22 34 0 5 12 21 26 36 15 14 24 26 20 26 -4 0 2 9 12 20 10 11 25 33
33 48 8 15 17 29 20 32 12 9 79 112 79 121 0 5 5 9 10 9 6 0 10 4 10 10 0 9
39 72 60 97 6 7 10 15 10 18 0 2 11 22 23 42 12 21 21 41 19 46 -1 4 2 7 8 7
5 0 10 6 10 14 0 8 3 16 8 18 4 2 16 21 27 43 10 22 28 52 38 68 10 15 15 27
12 27 -4 0 1 7 9 16 9 8 14 19 11 24 -3 5 -1 11 5 15 12 7 55 96 52 108 -1 4
3 7 9 7 5 0 7 5 4 10 -3 6 -1 10 4 10 6 0 11 7 11 15 0 8 5 15 11 15 6 0 9 7
5 15 -3 8 -1 15 4 15 6 0 10 9 10 20 0 11 5 20 10 20 6 0 9 3 8 8 -1 8 7 30
46 114 14 31 26 62 26 67 0 6 5 11 11 11 5 0 7 5 4 10 -3 6 -2 10 4 10 5 0 8
9 6 19 -2 10 5 28 15 39 10 11 17 22 14 24 -2 3 2 18 10 33 8 16 13 32 10 37
-3 4 -1 8 5 8 6 0 13 16 17 35 3 19 11 35 16 35 6 0 8 7 4 15 -3 8 -1 15 5 15
6 0 7 5 4 10 -3 6 -1 10 5 10 6 0 8 5 5 10 -3 6 -2 10 2 10 5 0 10 9 11 20 4
44 6 50 15 50 5 0 7 7 4 15 -4 8 -2 17 3 20 6 4 10 15 10 26 0 10 4 19 8 19 5
0 9 6 10 13 2 30 13 62 22 65 6 2 8 7 5 12 -3 4 4 29 15 55 11 26 18 51 14 56
-3 5 -1 9 4 9 5 0 9 6 10 13 1 16 9 48 17 68 7 18 -13 37 -24 23 -9 -13 -72
-34 -82 -28 -5 3 -9 0 -9 -7 0 -6 -8 -9 -20 -6 -11 3 -18 1 -14 -4 3 -5 -3 -9
-14 -9 -10 0 -22 -3 -26 -7 -4 -4 -19 -9 -34 -11 -14 -2 -31 -7 -37 -11 -5 -5
-18 -7 -27 -6 -10 2 -18 -1 -18 -7 0 -6 -7 -8 -15 -4 -8 3 -15 2 -15 -2 0 -4
-10 -8 -22 -8 -44 -3 -68 -8 -68 -15 0 -3 -13 -5 -30 -4 -16 1 -30 -2 -30 -7
0 -5 -6 -8 -12 -7 -7 2 -33 -1 -58 -5 -95 -16 -174 -27 -231 -31 -20 -1 -42
-5 -48 -9 -6 -4 -11 -1 -11 6 0 8 -3 9 -8 3 -4 -5 -27 -10 -52 -10 -25 0 -60
-3 -77 -6 -22 -5 -33 -3 -33 5 0 7 -3 6 -9 -2 -4 -8 -12 -14 -16 -14 -4 0 -12
6 -16 14 -7 10 -9 10 -9 0 0 -8 -12 -11 -37 -8 -20 3 -43 1 -49 -5 -8 -7 -14
-6 -19 1 -4 7 -12 7 -25 0 -13 -7 -21 -7 -26 1 -4 8 -9 7 -15 -2 -5 -8 -9 -9
-9 -3 0 7 -16 10 -42 7 -48 -5 -48 -5 -103 1 -22 2 -46 -1 -54 -7 -12 -10 -13
-9 -7 2 7 10 3 12 -14 6 -17 -5 -21 -4 -15 5 6 9 4 11 -5 5 -7 -4 -42 -7 -79
-6 -36 2 -91 3 -121 4 -30 1 -58 6 -62 12 -5 6 -8 5 -8 -3 0 -7 -5 -10 -10 -7
-6 4 -51 8 -101 10 -50 2 -93 6 -96 9 -3 2 -16 1 -30 -5 -18 -6 -22 -6 -17 3
5 8 2 9 -9 5 -9 -3 -19 -2 -22 3 -4 6 -13 7 -24 1 -10 -6 -23 -6 -31 -1 -9 5
-19 5 -27 -2 -7 -6 -13 -6 -13 -1 0 5 -28 9 -62 10 -35 1 -63 2 -63 3 0 1 -27
3 -61 4 -33 1 -65 6 -72 10 -7 4 -12 3 -12 -3 0 -7 -8 -7 -25 -1 -16 6 -26 6
-31 -1 -3 -6 -11 -6 -17 -1 -7 5 -43 9 -81 11 -38 1 -73 4 -77 7 -5 3 -9 0 -9
-6 0 -6 -5 -8 -12 -3 -7 4 -21 6 -32 4 -12 -2 -16 1 -11 10 6 8 4 10 -6 3 -20
-12 -79 -13 -79 0 0 7 -3 7 -8 1 -10 -14 -32 -17 -32 -4 0 8 -4 8 -13 0 -10
-8 -17 -7 -25 1 -9 9 -12 9 -12 -2 0 -10 -3 -11 -11 -3 -7 7 -21 8 -39 3 -15
-4 -33 -4 -40 0 -7 4 -25 4 -40 0 -15 -4 -33 -4 -41 1 -8 4 -19 3 -26 -3 -9
-7 -13 -7 -13 1 0 9 -5 9 -20 1 -14 -8 -20 -8 -20 0 0 8 -6 8 -20 0 -15 -8
-20 -8 -20 2 0 8 -3 9 -8 3 -6 -9 -27 -11 -42 -5 -17 6 -39 7 -36 1 3 -4 -28
-8 -67 -10 -137 -5 -152 -6 -162 -11 -5 -3 -40 -5 -77 -5 -38 0 -68 -3 -68 -7
0 -4 -7 -4 -17 -1 -11 4 -14 3 -9 -5 5 -9 1 -9 -17 -3 -14 6 -28 7 -31 4 -3
-4 -16 -7 -28 -9 -13 -1 -43 -5 -68 -9 -25 -3 -56 -8 -70 -10 -14 -1 -27 -4
-30 -5 -3 -1 -9 -2 -14 -1 -4 1 -14 -4 -22 -10 -11 -9 -14 -8 -14 2 0 11 -2
11 -9 1 -4 -7 -12 -12 -17 -11 -5 1 -11 1 -14 -1 -7 -2 -82 -13 -102 -13 -10
-1 -18 -5 -18 -10 0 -5 -6 -7 -14 -4 -8 3 -17 3 -20 -1 -7 -6 -28 -11 -63 -15
-13 -1 -23 -5 -23 -9 0 -5 -13 -8 -30 -8 -16 0 -30 -5 -30 -12 0 -6 -3 -9 -6
-5 -4 3 -22 0 -40 -8 -19 -8 -34 -12 -34 -10 0 2 -29 -7 -65 -20 -36 -13 -65
-21 -65 -18 0 3 -7 0 -15 -7 -8 -6 -19 -9 -25 -5 -5 3 -10 1 -10 -4 0 -6 -9
-11 -20 -11 -11 0 -20 -5 -20 -11 0 -6 -9 -8 -21 -4 -15 5 -19 4 -15 -4 6 -10
-13 -16 -36 -12 -5 0 -8 -4 -8 -9 0 -6 -9 -10 -19 -10 -11 0 -23 -4 -26 -10
-3 -5 -15 -10 -26 -10 -11 0 -22 -7 -25 -15 -4 -8 -10 -12 -15 -10 -7 5 -235
-100 -249 -115 -3 -3 -30 -18 -60 -34 -30 -16 -62 -35 -71 -42 -8 -8 -21 -14
-27 -14 -7 0 -12 -5 -12 -12 0 -6 -3 -9 -6 -5 -4 3 -13 -1 -21 -9 -8 -8 -18
-12 -23 -9 -4 3 -11 -2 -14 -11 -3 -8 -10 -12 -16 -9 -5 3 -10 2 -10 -3 0 -5
-18 -21 -40 -36 -22 -14 -40 -23 -40 -19 0 4 -7 -3 -16 -15 -8 -12 -20 -20
-25 -17 -5 4 -12 -1 -15 -9 -3 -9 -10 -13 -15 -10 -5 3 -9 2 -9 -3 0 -4 -17
-19 -38 -33 -20 -14 -41 -30 -45 -37 -4 -7 -13 -13 -18 -13 -6 0 -16 -6 -23
-12 -7 -7 -30 -26 -51 -43 -21 -16 -44 -36 -51 -42 -7 -7 -16 -13 -21 -13 -4
0 -14 -9 -21 -21 -7 -12 -16 -19 -19 -16 -6 7 -49 -36 -46 -45 2 -5 -1 -8 -7
-8 -12 0 -37 -20 -115 -95 -34 -33 -66 -62 -71 -65 -5 -3 -8 -8 -7 -12 2 -5
-2 -8 -7 -8 -15 0 -60 -47 -53 -54 4 -3 1 -6 -5 -6 -13 0 -112 -97 -112 -110
0 -6 -8 -10 -17 -10 -9 0 -14 -3 -11 -6 3 -3 -11 -21 -31 -41 -20 -19 -35 -39
-34 -44 2 -5 -4 -9 -12 -9 -8 0 -15 -7 -15 -16 0 -8 -4 -12 -10 -9 -5 3 -10 1
-10 -5 0 -6 -16 -26 -36 -45 -20 -19 -33 -35 -31 -35 5 0 -33 -45 -88 -103
-16 -18 -30 -34 -31 -37 -4 -20 -18 -39 -25 -34 -5 3 -9 0 -9 -5 0 -6 -8 -19
-17 -30 -58 -61 -73 -81 -73 -96 0 -9 -4 -13 -10 -10 -5 3 -10 2 -10 -2 0 -5
-7 -18 -15 -28 -8 -11 -35 -47 -60 -80 -25 -33 -51 -67 -57 -75 -7 -8 -13 -18
-13 -23 0 -4 -5 -11 -10 -15 -16 -11 -65 -80 -65 -90 0 -6 -4 -12 -8 -14 -4
-1 -39 -50 -77 -108 -39 -58 -73 -107 -76 -110 -3 -3 -14 -20 -23 -37 -9 -18
-21 -33 -27 -33 -6 0 -7 -4 -4 -10 3 -5 2 -10 -2 -10 -5 0 -19 -20 -31 -45
-12 -25 -27 -45 -32 -45 -6 0 -9 -4 -6 -8 3 -5 -5 -20 -17 -34 l-22 -26 1 162
c1 88 -3 171 -7 184 -5 14 -5 22 2 22 6 0 7 5 3 12 -4 6 -9 34 -11 62 -4 67
-11 131 -13 131 -9 0 -5 35 3 35 7 0 5 5 -4 10 -11 7 -16 21 -14 50 1 22 -1
40 -4 40 -4 0 -8 15 -9 33 -2 36 -5 54 -16 79 -4 9 -5 22 -1 28 3 5 1 10 -6
10 -6 0 -9 8 -6 20 3 11 2 20 -3 20 -4 0 -10 15 -13 33 -8 52 -40 151 -51 159
-6 4 -7 8 -2 8 4 0 1 12 -9 26 -9 15 -12 24 -7 20 10 -6 -7 53 -18 64 -3 3 -6
11 -8 19 -2 8 -12 32 -23 54 -10 23 -19 47 -19 54 0 7 -4 13 -10 13 -5 0 -10
9 -10 20 0 11 -5 20 -10 20 -6 0 -9 3 -8 8 3 9 -65 146 -74 150 -5 2 -8 10 -8
18 0 8 -4 14 -10 14 -5 0 -10 7 -10 15 0 8 -5 15 -11 15 -5 0 -7 5 -4 10 3 6
1 10 -5 10 -6 0 -9 4 -6 9 4 5 3 11 -1 13 -12 5 -53 66 -53 77 0 6 -6 14 -12
18 -7 4 -24 24 -38 44 -55 79 -107 140 -221 259 -31 32 -60 56 -63 53 -3 -4
-6 1 -6 10 0 10 -3 17 -7 17 -8 0 -32 20 -95 76 -15 13 -31 24 -36 24 -4 0
-14 8 -23 18 -8 9 -30 28 -48 42 -18 14 -39 31 -47 38 -8 7 -14 10 -14 6 0 -4
-9 3 -20 16 -11 13 -20 20 -20 16 0 -4 -12 4 -26 18 -15 13 -38 30 -53 38 -14
7 -33 20 -42 28 -37 32 -49 40 -59 40 -5 0 -10 5 -10 10 0 6 -6 10 -13 10 -7
0 -30 15 -52 34 -22 19 -41 33 -44 31 -2 -2 -9 1 -17 8 -27 24 -40 33 -71 52
-18 11 -33 23 -33 27 0 4 -7 8 -15 8 -8 0 -15 7 -15 16 0 8 -4 13 -10 9 -5 -3
-18 3 -30 15 -11 11 -22 20 -25 20 -6 0 -24 14 -56 43 -10 9 -21 17 -24 17 -3
0 -13 8 -24 18 -10 9 -33 28 -50 41 -18 13 -48 40 -67 59 -19 19 -34 31 -34
28 0 -3 -15 9 -33 27 -19 18 -32 35 -30 39 2 4 -5 9 -16 13 -10 3 -21 15 -24
26 -3 12 -10 18 -16 14 -6 -3 -11 -3 -11 2 0 4 -14 24 -31 43 -18 19 -42 52
-55 73 -14 20 -29 37 -35 37 -5 0 -7 5 -4 10 3 6 1 10 -6 10 -7 0 -9 3 -6 7 4
3 -2 12 -13 20 -11 8 -20 21 -20 29 0 8 -5 14 -11 14 -5 0 -7 5 -4 10 3 6 -1
10 -10 10 -9 0 -13 -4 -10 -10z m6731 -1812 c5 4 2 -1 -5 -10 -18 -23 -27 -23
-34 2 -4 16 -2 18 13 10 9 -5 21 -6 26 -2z"/>
<path d="M12732 10371 c-11 -7 -10 -9 3 -15 9 -3 13 -10 10 -16 -4 -6 1 -7 11
-3 13 5 15 3 9 -7 -6 -9 -4 -11 5 -5 10 6 9 11 -6 22 -10 8 -18 19 -16 24 3
11 1 11 -16 0z"/>
<path d="M12780 10306 c0 -9 3 -15 8 -13 4 3 20 -12 36 -34 19 -24 33 -36 39
-30 6 6 4 15 -5 23 -8 7 -28 26 -46 42 -26 24 -32 26 -32 12z"/>
<path d="M12837 9522 c3 -10 10 -22 14 -28 5 -6 6 -14 2 -17 -3 -4 -1 -7 6 -7
8 0 11 -7 7 -15 -3 -8 -1 -15 5 -15 6 0 8 -4 5 -9 -4 -5 -2 -11 3 -13 5 -1 11
-16 13 -33 2 -16 7 -33 11 -36 5 -3 10 -12 11 -20 2 -8 6 -22 10 -31 4 -9 8
-22 10 -30 1 -7 5 -19 9 -25 5 -7 6 -13 2 -13 -3 0 4 -19 16 -42 12 -24 21
-44 20 -46 -5 -6 12 -73 20 -78 5 -3 7 -10 4 -15 -4 -5 0 -9 7 -9 9 0 9 -3 -2
-10 -12 -8 -12 -10 5 -10 15 0 17 -2 6 -9 -10 -6 -10 -13 -2 -28 5 -11 7 -23
4 -27 -3 -3 -1 -6 6 -6 7 0 9 -5 6 -10 -4 -6 -1 -18 7 -27 11 -14 11 -16 -2
-8 -12 7 -13 6 -3 -6 6 -8 14 -28 17 -44 2 -17 5 -30 6 -30 2 0 4 -9 6 -20 5
-33 9 -49 15 -60 3 -5 4 -20 3 -32 0 -13 2 -23 7 -23 5 0 6 -7 3 -15 -4 -8 -2
-21 3 -28 4 -6 8 -23 8 -37 0 -14 5 -28 10 -32 6 -5 5 -8 -3 -8 -10 0 -10 -5
-2 -20 6 -11 8 -20 4 -20 -3 0 -1 -7 6 -15 10 -12 10 -15 -1 -15 -9 0 -10 -3
-4 -8 6 -4 13 -27 14 -52 7 -78 8 -95 11 -100 1 -3 2 -33 2 -68 -1 -43 2 -60
10 -56 7 5 8 2 2 -7 -12 -19 -11 -69 1 -69 6 0 4 -4 -3 -8 -9 -7 -10 -15 -3
-35 8 -20 7 -27 -2 -27 -8 0 -7 -4 3 -10 8 -5 10 -10 5 -10 -6 0 -10 -27 -9
-65 1 -36 -2 -68 -7 -71 -5 -3 -6 -11 -2 -17 12 -19 12 -36 2 -43 -6 -3 -5
-11 2 -20 6 -8 7 -14 2 -14 -5 0 -9 -18 -8 -40 1 -22 -3 -40 -8 -40 -5 0 -4
-7 3 -15 7 -9 8 -15 2 -15 -6 0 -9 -8 -7 -17 1 -10 0 -22 -4 -28 -3 -5 -7 -19
-8 -30 -1 -11 -8 -47 -15 -80 -7 -33 -11 -63 -10 -67 1 -5 -2 -8 -8 -8 -5 0
-7 -7 -4 -15 4 -8 2 -15 -4 -15 -6 0 -9 -8 -7 -17 1 -10 -2 -23 -7 -30 -5 -7
-7 -17 -3 -23 3 -5 2 -10 -3 -10 -6 0 -13 -7 -16 -16 -3 -8 -2 -12 4 -9 6 3 7
-1 4 -9 -3 -9 -9 -16 -13 -16 -4 0 -8 -12 -9 -27 -1 -15 -7 -30 -13 -34 -6 -3
-11 -10 -11 -15 -1 -25 -41 -114 -51 -114 -5 0 -6 -4 -3 -9 3 -4 -3 -19 -15
-32 -11 -12 -17 -29 -15 -36 3 -7 -1 -16 -7 -20 -7 -5 -24 -26 -37 -48 -14
-22 -32 -49 -42 -59 -9 -10 -15 -24 -11 -29 3 -6 1 -7 -5 -3 -7 4 -12 1 -12
-9 0 -9 -4 -13 -10 -10 -5 3 -10 0 -10 -7 0 -24 -139 -162 -225 -223 -15 -11
-35 -28 -43 -37 -9 -9 -19 -15 -24 -12 -4 3 -11 -1 -14 -10 -3 -9 -12 -12 -21
-9 -10 4 -14 2 -10 -4 4 -6 -15 -20 -45 -33 -29 -12 -59 -30 -66 -39 -7 -9
-11 -11 -8 -4 4 6 -15 1 -41 -12 -25 -13 -50 -22 -55 -19 -4 3 -8 0 -8 -6 0
-6 -4 -8 -10 -5 -5 3 -10 2 -10 -3 0 -5 -7 -9 -15 -10 -8 -1 -22 -3 -30 -4 -8
-1 -15 -6 -15 -11 0 -6 -3 -8 -6 -4 -3 3 -26 0 -50 -8 -24 -7 -44 -11 -44 -8
0 3 -8 -1 -17 -8 -11 -9 -14 -10 -9 -2 5 9 2 11 -8 7 -9 -3 -16 -10 -16 -14 0
-5 -9 -6 -19 -3 -10 3 -29 -1 -41 -7 -17 -9 -21 -9 -15 0 6 9 3 9 -13 1 -23
-12 -136 -24 -184 -20 -7 1 -25 -1 -40 -4 -16 -3 -28 -1 -28 4 0 6 -5 7 -12 3
-17 -11 -68 -12 -74 -3 -2 4 -17 4 -33 -1 -16 -4 -32 -6 -34 -4 -3 3 -33 7
-68 10 -78 6 -123 11 -169 18 -19 3 -47 7 -62 8 -16 1 -28 5 -28 9 0 4 -13 6
-30 5 -16 -1 -30 1 -30 5 0 4 -8 8 -17 8 -60 2 -83 5 -83 12 0 4 -11 6 -25 5
-13 -2 -22 1 -19 5 3 5 -11 9 -30 9 -19 0 -38 5 -41 10 -3 6 -19 10 -34 10
-15 0 -31 3 -35 8 -4 4 -12 8 -17 8 -5 1 -10 2 -11 4 -3 2 -17 5 -55 14 -12 2
-30 9 -41 15 -11 6 -22 7 -26 4 -3 -3 -6 -1 -6 6 0 8 -7 11 -15 7 -8 -3 -15
-1 -15 5 0 6 -5 7 -10 4 -6 -4 -17 -1 -25 5 -8 7 -15 9 -15 5 0 -4 -6 -2 -13
4 -8 6 -17 8 -20 4 -4 -3 -7 0 -7 7 0 7 -3 11 -6 7 -4 -3 -19 0 -34 8 -15 8
-30 11 -34 8 -3 -4 -6 -1 -6 5 0 7 -3 11 -7 10 -9 -1 -60 17 -85 32 -10 6 -25
10 -33 10 -8 0 -15 4 -15 8 0 5 -7 9 -15 10 -8 1 -22 3 -30 4 -8 1 -15 5 -15
9 0 7 -39 22 -52 20 -5 -1 -8 4 -8 10 0 5 -4 8 -9 5 -4 -3 -19 3 -31 14 -26
23 -34 25 -24 8 4 -7 -2 -5 -13 5 -11 9 -23 14 -26 10 -4 -3 -7 -1 -7 5 0 7
-5 12 -11 12 -11 0 -139 60 -149 70 -18 18 -132 70 -142 64 -6 -4 -8 -3 -4 4
3 6 -4 14 -16 17 -13 4 -34 17 -47 29 -13 11 -21 15 -17 8 4 -7 -13 1 -37 18
-25 16 -50 30 -56 30 -6 0 -11 5 -11 11 0 5 -5 7 -10 4 -6 -3 -13 1 -16 9 -3
9 -10 14 -14 11 -4 -3 -13 2 -20 10 -7 8 -17 15 -22 15 -6 0 -23 9 -39 21 -16
11 -29 17 -29 13 0 -4 -8 3 -19 14 -10 12 -25 22 -33 22 -9 0 -21 7 -28 15 -7
8 -18 15 -24 15 -7 0 -21 8 -32 18 -31 27 -81 61 -95 64 -13 3 -40 22 -64 46
-8 6 -18 12 -24 12 -6 0 -11 5 -11 11 0 5 -4 8 -9 5 -5 -4 -11 -3 -13 1 -1 5
-23 21 -48 38 -25 16 -69 47 -97 68 -29 21 -53 35 -53 33 0 -10 49 -54 54 -48
3 3 6 -2 6 -11 0 -8 8 -18 18 -21 9 -3 43 -31 75 -61 31 -30 57 -53 57 -50 0
2 11 -7 25 -21 14 -14 25 -29 25 -34 0 -6 3 -9 8 -9 17 3 35 -1 30 -7 -7 -6
82 -94 95 -94 5 0 5 -4 2 -10 -3 -5 -1 -10 5 -10 6 0 43 -31 81 -70 38 -38 73
-70 79 -70 5 0 9 -6 7 -12 -1 -7 4 -12 11 -10 8 1 11 -2 7 -8 -4 -7 2 -14 14
-17 12 -3 21 -9 21 -13 0 -12 113 -125 122 -122 5 1 7 -1 4 -6 -3 -5 19 -33
49 -63 29 -29 52 -56 49 -60 -2 -4 5 -10 16 -14 11 -3 20 -10 20 -15 0 -5 18
-27 39 -49 21 -22 36 -42 33 -45 -3 -3 2 -6 11 -6 8 0 18 -8 21 -17 3 -10 23
-36 43 -59 61 -65 94 -104 88 -104 -3 0 3 -8 13 -19 34 -36 86 -103 104 -132
10 -16 23 -29 28 -29 6 0 9 -4 6 -8 -3 -5 8 -24 25 -43 41 -47 44 -52 52 -71
3 -10 11 -18 17 -18 6 0 8 -4 5 -10 -3 -5 -1 -10 4 -10 6 0 11 -6 11 -13 0 -8
9 -22 20 -32 11 -10 20 -24 20 -32 0 -7 7 -16 15 -19 8 -4 12 -10 9 -15 -3 -5
0 -9 5 -9 6 0 11 -7 11 -15 0 -8 5 -15 10 -15 6 0 10 -9 10 -19 0 -10 6 -21
13 -24 7 -2 22 -23 32 -46 11 -22 23 -41 28 -41 4 0 7 -5 7 -10 0 -6 11 -28
25 -50 14 -22 22 -40 18 -40 -5 0 -3 -4 3 -8 5 -4 18 -24 27 -44 10 -20 22
-40 27 -43 6 -4 8 -10 6 -14 -3 -4 4 -18 15 -29 11 -12 17 -22 13 -22 -3 0 1
-11 10 -25 9 -14 14 -25 10 -25 -3 0 4 -16 16 -35 12 -19 19 -35 16 -35 -4 0
1 -11 10 -25 9 -14 13 -25 8 -25 -4 0 1 -7 12 -16 10 -8 13 -13 7 -9 -9 4 -9
-2 1 -22 33 -66 60 -143 52 -150 -3 -4 1 -15 11 -25 9 -10 13 -18 8 -18 -4 0
-2 -7 5 -15 6 -8 9 -19 5 -25 -3 -5 -2 -10 3 -10 5 0 9 -6 10 -12 1 -15 10
-53 12 -53 2 0 9 -29 15 -60 2 -11 7 -33 11 -50 4 -16 6 -38 6 -47 0 -10 3
-18 7 -18 7 0 13 -50 15 -112 0 -16 3 -28 6 -28 3 0 5 -26 5 -57 -1 -32 2 -73
6 -90 4 -18 4 -33 0 -33 -3 0 -6 -50 -6 -111 0 -61 -3 -113 -7 -115 -4 -2 -5
-16 -2 -30 3 -14 1 -23 -3 -21 -4 3 -9 -11 -10 -31 -1 -21 -6 -55 -12 -77 -7
-22 -14 -51 -17 -64 -3 -13 -11 -39 -19 -57 -8 -19 -12 -34 -10 -34 3 0 -4
-16 -15 -36 -11 -19 -15 -32 -8 -28 6 4 2 -7 -11 -24 -12 -18 -20 -32 -16 -32
7 0 -23 -57 -44 -82 -8 -10 -10 -18 -6 -18 4 0 0 -9 -10 -20 -10 -11 -15 -20
-12 -20 4 0 -1 -9 -11 -20 -9 -12 -16 -23 -14 -26 1 -2 -4 -12 -13 -20 -8 -9
-29 -37 -47 -62 -17 -26 -41 -55 -51 -65 -11 -9 -17 -17 -13 -17 4 0 -4 -10
-16 -22 -13 -13 -34 -36 -47 -53 -12 -16 -26 -30 -29 -30 -4 0 -6 -3 -5 -7 2
-5 -1 -8 -6 -8 -5 0 -31 -21 -58 -48 -27 -26 -66 -60 -86 -77 -66 -52 -82 -64
-97 -77 -8 -7 -18 -12 -23 -10 -4 1 -10 -5 -13 -13 -4 -8 -12 -15 -19 -15 -7
0 -18 -7 -25 -15 -7 -8 -16 -13 -20 -10 -4 3 -11 -2 -14 -11 -3 -8 -10 -12
-16 -9 -5 3 -10 2 -10 -3 0 -5 -12 -15 -27 -23 -16 -8 -31 -18 -35 -24 -4 -5
-11 -10 -15 -11 -15 -2 -48 -17 -75 -36 -16 -11 -28 -16 -28 -11 0 4 -4 4 -8
-2 -12 -17 -52 -36 -62 -30 -6 4 -10 1 -10 -4 0 -14 -69 -43 -83 -34 -6 3 -7
1 -3 -5 4 -7 2 -13 -3 -13 -21 -3 -52 -14 -156 -60 -34 -14 -30 -13 -70 -24
-16 -4 -35 -11 -40 -16 -6 -4 -24 -11 -40 -14 -40 -8 -60 -13 -60 -15 0 -1 -8
-3 -17 -5 -9 -2 -31 -10 -48 -18 -19 -10 -28 -11 -23 -4 4 7 0 6 -10 -2 -9 -7
-17 -10 -17 -6 0 4 -6 2 -14 -4 -8 -6 -18 -11 -22 -10 -5 1 -11 0 -14 -1 -14
-5 -47 -12 -67 -13 -12 0 -20 -4 -17 -8 2 -4 -4 -8 -13 -8 -38 -1 -53 -5 -53
-12 0 -4 -9 -5 -20 -2 -11 3 -20 1 -20 -3 0 -5 -10 -9 -22 -10 -13 0 -45 -4
-73 -9 -27 -4 -58 -8 -67 -9 -10 0 -18 -3 -18 -6 0 -3 -12 -7 -27 -8 -29 -3
-68 -9 -68 -12 0 -1 -16 -3 -35 -5 -40 -5 -86 -11 -145 -20 -22 -3 -67 -8
-100 -10 -33 -2 -60 -5 -60 -6 0 -1 -10 -3 -21 -4 -12 -1 -33 -5 -48 -9 -20
-5 -26 -3 -21 5 6 8 2 8 -14 0 -11 -7 -21 -9 -21 -5 0 3 -6 2 -13 -4 -8 -7
-18 -7 -27 -2 -8 5 -18 6 -23 3 -11 -7 -120 -15 -232 -17 -44 0 -83 -5 -87
-11 -5 -7 -8 -6 -8 0 0 6 -9 11 -20 12 -11 1 -20 -3 -20 -8 0 -6 -6 -7 -16 -1
-8 5 -35 6 -59 2 -29 -4 -46 -3 -49 4 -3 7 -5 7 -5 -1 -1 -9 -8 -10 -27 -3
-16 7 -23 7 -19 0 3 -6 2 -10 -4 -10 -5 0 -8 -8 -6 -18 2 -9 4 -20 4 -24 1 -6
28 -18 54 -24 4 -1 10 -3 15 -4 4 -2 12 -4 17 -5 24 -3 55 -17 55 -24 0 -3 8
-7 18 -7 15 -1 37 -5 82 -16 8 -1 18 -7 21 -12 4 -5 18 -9 33 -9 14 0 26 -4
26 -9 0 -5 4 -7 9 -3 5 3 13 0 17 -6 4 -8 9 -7 15 2 6 9 9 10 9 2 0 -10 82
-30 103 -25 4 1 7 -2 7 -8 0 -5 16 -10 35 -10 19 0 35 -4 35 -9 0 -5 11 -8 25
-6 14 1 25 -1 25 -5 0 -5 10 -6 22 -2 11 3 19 1 16 -4 -4 -5 8 -9 25 -10 44
-1 101 -9 112 -16 6 -3 30 -7 55 -9 25 -1 49 -5 54 -7 9 -5 81 -13 139 -16 15
0 27 -3 27 -6 0 -5 13 -6 130 -11 30 -1 58 -7 62 -13 6 -8 8 -8 8 0 0 11 46
11 57 0 4 -3 12 -1 20 5 7 6 13 7 13 2 0 -5 9 -9 20 -10 13 -1 18 2 14 9 -5 7
-2 8 7 2 20 -13 269 -12 269 1 0 7 3 7 8 0 9 -13 46 -20 38 -7 -3 5 1 9 9 9 8
0 15 -4 15 -8 0 -4 12 -4 28 0 15 4 51 7 79 6 29 0 53 2 53 5 0 3 21 6 48 7
110 4 152 8 152 16 0 4 13 5 29 2 17 -3 33 0 36 5 5 8 11 7 21 -1 11 -9 14 -9
14 1 0 7 8 10 20 7 11 -3 20 -2 20 2 0 4 10 7 23 6 12 -1 27 0 32 4 6 3 15 6
22 7 6 1 31 5 55 9 24 4 55 8 71 9 15 0 27 4 27 8 0 4 9 5 20 3 11 -2 20 0 20
5 0 5 7 7 15 4 8 -4 15 -2 15 2 0 5 10 10 23 10 29 2 49 8 65 17 6 5 12 5 12
1 0 -3 8 0 17 7 11 9 14 10 9 2 -4 -8 9 -6 36 6 24 10 49 16 56 14 6 -3 12 -1
12 4 0 5 8 9 18 10 43 3 60 8 56 15 -3 4 5 8 18 8 13 0 30 6 37 13 11 10 12 9
6 -1 -6 -12 -3 -12 16 -1 13 7 27 14 32 15 4 1 9 3 12 4 3 1 8 3 13 4 19 3
109 40 121 50 12 9 13 8 6 -3 -5 -9 5 -6 22 7 17 12 33 19 37 15 3 -3 6 -1 6
6 0 7 5 9 10 6 6 -4 17 -1 25 5 8 6 19 9 25 5 5 -3 10 -3 10 2 0 4 12 13 28
20 15 6 51 22 80 34 28 13 52 27 52 31 0 5 5 6 10 3 6 -3 10 -1 10 5 0 6 4 9
9 5 5 -3 12 -1 16 5 4 6 11 8 16 5 5 -4 9 -1 9 5 0 6 5 8 10 5 6 -3 10 -1 10
6 0 7 3 10 6 6 3 -3 25 6 48 20 22 15 47 26 53 26 7 0 13 3 13 7 0 3 22 17 50
31 27 13 50 28 50 32 0 5 5 5 10 2 6 -3 10 -1 10 5 0 6 5 8 10 5 6 -3 10 -1
10 4 0 6 7 11 15 11 8 0 15 5 15 10 0 6 7 10 15 10 8 0 15 5 15 10 0 6 9 10
19 10 11 0 27 10 35 22 9 12 16 19 16 15 0 -10 107 61 145 95 17 16 35 28 41
28 6 0 23 11 38 25 14 13 26 22 26 20 0 -5 40 28 72 58 10 9 18 14 18 10 0 -5
7 1 15 11 8 11 15 17 15 13 0 -3 14 7 30 23 17 17 35 30 41 30 6 0 7 5 4 10
-3 6 -1 10 6 10 7 0 19 7 28 16 43 41 94 84 102 84 5 0 9 7 9 16 0 8 4 13 9
10 4 -3 19 8 31 24 12 16 31 32 42 36 11 3 17 8 15 11 -3 2 26 32 63 66 37 34
68 65 69 69 1 4 28 34 61 68 33 34 60 64 60 66 0 3 13 20 30 37 86 92 100 108
100 117 0 6 5 10 12 10 6 0 9 2 6 5 -3 3 9 21 26 40 46 50 58 65 50 65 -4 0 3
9 16 20 13 11 19 20 14 20 -5 0 -1 5 9 11 9 5 17 14 17 19 0 6 8 19 18 29 36
40 47 56 45 63 -2 5 2 8 7 8 6 0 10 5 10 11 0 6 6 17 13 24 29 33 37 45 37 55
0 5 5 10 11 10 5 0 7 5 4 10 -3 6 1 13 9 16 9 3 16 12 16 18 0 7 9 22 20 34
12 12 17 22 13 22 -4 0 -1 6 8 13 9 7 17 17 18 22 1 6 15 30 30 55 15 25 27
48 27 51 -1 4 6 15 15 25 9 11 34 53 55 94 21 41 44 78 49 82 6 4 6 8 1 8 -5
0 -2 8 7 18 10 10 14 22 10 25 -3 4 -2 7 4 7 5 0 16 18 23 40 7 22 17 40 22
40 4 0 7 3 6 8 -1 4 5 21 15 38 9 17 14 34 11 36 -2 3 2 11 11 18 8 7 15 19
15 27 0 8 7 21 16 30 8 9 13 22 10 29 -3 8 -1 14 5 14 6 0 7 5 4 10 -3 6 -1
10 6 10 7 0 10 3 6 6 -3 3 3 23 14 42 10 20 19 47 19 60 0 13 4 20 10 17 6 -3
10 1 10 10 0 16 20 67 41 108 5 10 7 22 4 27 -4 6 -1 10 5 10 6 0 9 4 5 9 -3
5 -1 12 4 16 6 3 7 13 4 22 -4 11 -3 14 5 9 8 -5 10 -2 6 8 -3 9 -2 16 3 16 5
0 10 12 11 26 1 15 7 33 13 40 6 8 8 14 4 14 -4 0 -2 7 5 15 7 8 10 15 7 15
-3 0 1 16 9 35 8 19 11 35 8 35 -4 0 -1 7 6 15 6 8 9 18 6 24 -3 5 -1 11 6 13
6 2 13 15 14 29 4 36 11 74 13 74 2 0 5 11 8 25 2 14 6 32 8 40 2 8 4 23 4 33
1 10 4 16 9 14 4 -3 8 7 9 21 1 15 4 38 7 52 12 53 15 65 16 65 2 0 12 48 13
70 1 11 7 23 12 27 6 5 5 8 -4 8 -11 0 -11 3 -1 15 7 8 10 22 6 30 -3 8 -1 15
5 15 6 0 9 7 5 15 -3 8 -2 15 2 15 5 0 8 18 7 40 -1 22 2 40 6 40 4 0 6 11 3
24 -2 14 -1 27 3 29 5 3 8 28 8 56 -1 28 3 51 8 51 5 0 7 10 4 22 -3 12 -2 30
4 40 6 12 6 18 0 18 -7 0 -7 8 -2 23 4 12 7 30 6 40 -2 9 0 17 3 17 4 0 6 25
5 56 -2 38 0 53 8 48 8 -4 8 -1 1 13 -7 12 -7 25 -1 36 6 9 6 17 1 17 -5 0 -9
7 -9 15 0 8 3 12 7 10 3 -2 5 105 4 238 -1 133 -2 242 -3 242 -2 0 -5 43 -14
228 -1 9 -4 17 -7 17 -3 0 -6 21 -7 48 -1 26 -4 63 -7 82 -6 42 -17 140 -18
158 -1 6 -6 12 -12 12 -6 0 -4 5 4 10 8 5 10 10 4 10 -6 0 -11 6 -11 13 -1 21
-13 92 -21 123 -5 16 -8 36 -7 44 0 8 -3 17 -7 20 -4 3 -9 21 -11 41 -2 19 -6
40 -10 45 -3 6 -8 25 -9 43 -1 17 -6 31 -11 31 -5 0 -7 7 -4 15 4 8 1 17 -4
21 -6 3 -9 15 -6 25 3 11 1 19 -5 19 -5 0 -8 8 -6 18 2 11 -3 26 -11 35 -7 10
-11 17 -8 17 3 0 1 15 -4 33 -6 17 -12 40 -14 49 -2 9 -9 27 -16 40 -7 12 -13
32 -15 44 -1 11 -11 39 -22 62 -11 23 -15 39 -9 35 7 -4 6 1 -2 11 -8 10 -15
27 -16 38 -1 11 -8 24 -16 29 -8 5 -9 9 -4 9 6 0 3 5 -5 10 -11 7 -12 10 -2
10 10 0 10 4 -2 16 -9 8 -16 21 -16 28 0 7 -6 26 -14 42 -23 45 -39 88 -38 97
1 4 -3 7 -9 7 -5 0 -7 5 -4 10 3 6 1 10 -5 10 -6 0 -9 4 -5 9 3 5 -2 17 -11
25 -8 9 -13 16 -10 16 8 0 -66 143 -79 152 -5 4 -7 8 -3 8 4 0 -4 21 -19 48
-15 26 -36 64 -47 85 -11 20 -24 37 -28 37 -5 0 -7 4 -4 9 3 4 -3 19 -14 31
-11 13 -20 29 -20 37 0 7 -5 13 -11 13 -5 0 -8 4 -4 9 3 6 -3 14 -12 20 -10 6
-14 11 -10 11 4 0 -1 10 -13 22 -11 12 -20 28 -20 35 0 7 -4 13 -10 13 -5 0
-10 7 -10 15 0 9 -7 18 -15 21 -8 4 -15 13 -15 21 0 9 -9 24 -21 34 -11 9 -19
21 -17 25 2 4 -5 8 -14 10 -12 1 -15 -3 -11 -14z"/>
<path d="M11280 9185 c0 -5 -17 -11 -38 -13 -51 -3 -70 -7 -78 -15 -4 -4 -19
-7 -34 -7 -14 0 -31 -5 -38 -12 -7 -7 -12 -8 -12 -4 0 5 -7 3 -15 -4 -8 -7
-15 -10 -15 -6 0 4 -13 0 -30 -9 -16 -8 -31 -15 -32 -15 -2 1 -23 -8 -48 -19
-24 -11 -48 -17 -54 -14 -5 3 -6 1 -2 -5 6 -11 0 -14 -20 -11 -4 0 -10 -3 -13
-8 -3 -5 -28 -25 -56 -43 -27 -19 -59 -42 -69 -52 -10 -9 -23 -15 -28 -12 -5
3 -7 0 -6 -8 2 -7 -2 -12 -9 -11 -6 2 -15 -6 -18 -17 -4 -11 -13 -20 -21 -20
-8 0 -14 -4 -14 -9 0 -5 -17 -28 -37 -50 -76 -81 -84 -91 -77 -104 4 -6 4 -9
-1 -5 -8 8 -58 -64 -70 -101 -3 -11 -11 -21 -16 -21 -6 0 -8 -4 -4 -9 3 -5 0
-15 -7 -23 -7 -7 -14 -20 -16 -28 -2 -8 -7 -17 -10 -20 -6 -5 -11 -24 -14 -57
-1 -7 -5 -13 -10 -13 -5 0 -7 -4 -4 -9 4 -5 1 -22 -5 -38 -14 -37 -29 -109
-32 -150 0 -7 -4 -13 -9 -13 -5 0 -6 -6 -1 -12 4 -7 6 -26 4 -43 -7 -68 -7
-85 3 -85 6 0 5 -5 -2 -12 -8 -8 -8 -17 -1 -31 8 -15 8 -18 -1 -12 -9 6 -9 3
-1 -12 6 -11 8 -23 4 -26 -3 -4 -1 -12 4 -19 5 -7 8 -25 7 -40 -2 -16 2 -28 8
-28 7 0 6 -5 -1 -14 -8 -10 -9 -16 -1 -21 5 -3 10 -15 10 -26 0 -10 5 -19 11
-19 8 0 8 -4 0 -14 -9 -10 -8 -16 4 -26 8 -7 13 -15 10 -19 -2 -4 2 -20 10
-35 10 -18 10 -24 2 -20 -7 4 -4 -2 6 -13 9 -11 17 -27 17 -36 0 -9 4 -17 9
-17 5 0 12 -13 16 -30 4 -16 11 -30 16 -30 6 0 7 -4 4 -10 -3 -5 -1 -10 4 -10
6 0 11 -7 11 -15 0 -8 5 -15 10 -15 6 0 10 -7 10 -15 0 -8 5 -15 12 -15 6 0 9
-3 5 -6 -5 -6 17 -36 61 -81 12 -13 22 -27 22 -30 0 -7 99 -103 107 -103 3 0
13 -8 22 -18 37 -41 238 -158 285 -166 6 -1 21 -7 32 -14 12 -6 24 -8 28 -5 3
3 6 2 6 -3 0 -8 22 -14 68 -17 6 0 12 -4 12 -9 0 -4 18 -8 39 -8 22 0 43 -5
46 -10 4 -7 12 -7 25 0 10 6 21 6 24 1 3 -4 25 -8 49 -8 25 0 49 -3 56 -7 6
-4 11 -1 11 6 0 9 3 9 10 -2 5 -8 10 -10 10 -5 0 6 29 10 66 10 36 0 68 3 71
8 2 4 9 5 14 2 5 -4 9 -3 9 2 0 4 11 9 25 10 14 1 36 4 50 5 14 1 25 6 25 10
0 4 3 7 8 7 24 -4 52 2 47 11 -3 6 -2 10 4 10 5 0 11 -5 13 -10 2 -6 13 -2 25
9 11 11 24 17 27 14 3 -4 6 -1 6 6 0 7 4 10 9 7 13 -9 42 4 35 16 -3 5 0 8 7
7 20 -4 59 11 59 22 0 6 4 8 9 5 5 -3 20 5 33 17 14 13 31 21 38 19 7 -3 10 0
6 6 -3 6 2 13 12 16 10 4 35 21 55 40 20 19 37 32 37 29 0 -2 16 12 35 33 19
20 35 41 35 47 0 6 3 7 6 4 4 -4 23 15 42 41 20 26 40 49 44 50 5 2 6 8 2 13
-3 5 2 12 10 15 9 3 16 12 16 19 0 7 7 18 15 25 8 7 13 16 10 20 -3 5 -1 10 3
12 11 4 75 137 75 155 0 7 5 13 10 13 5 0 6 7 3 16 -4 9 -2 22 2 28 13 16 34
103 35 144 1 12 4 22 7 22 3 0 6 25 5 56 0 31 4 58 8 61 5 3 3 10 -4 15 -11 7
-11 11 -1 15 6 2 10 9 6 14 -3 5 -7 37 -9 71 -3 35 -7 72 -9 83 -2 11 -5 33
-5 48 -1 16 -5 26 -10 22 -6 -3 -8 3 -6 12 1 10 -3 36 -10 58 -8 21 -12 42 -9
47 3 4 0 8 -6 8 -6 0 -8 5 -5 10 3 6 1 10 -4 10 -6 0 -11 6 -11 14 0 8 -5 27
-12 43 -6 15 -11 31 -10 36 1 4 -4 7 -12 7 -10 0 -13 7 -11 20 2 11 0 18 -6
15 -5 -4 -9 0 -9 8 0 8 -7 20 -15 27 -8 7 -12 16 -9 21 3 5 0 9 -5 9 -6 0 -11
6 -11 14 0 8 -7 16 -15 20 -8 3 -14 9 -13 13 2 8 -26 43 -74 93 -15 16 -24 31
-21 34 4 3 1 6 -5 6 -6 0 -26 15 -45 33 -57 55 -157 127 -176 127 -6 0 -11 4
-11 8 0 4 -16 14 -35 21 -19 7 -35 16 -35 21 0 5 -7 7 -15 4 -8 -4 -15 -1 -15
6 0 6 -4 8 -10 5 -5 -3 -10 -1 -10 6 0 7 -3 9 -6 6 -4 -3 -16 -1 -28 5 -11 7
-24 11 -28 10 -5 -1 -8 2 -8 8 0 5 -6 7 -13 4 -7 -2 -30 2 -50 11 -20 8 -37
12 -37 9 0 -4 -7 -1 -15 6 -12 10 -15 10 -15 0 0 -9 -7 -7 -20 5 -15 14 -20
15 -20 4 0 -9 -3 -10 -8 -4 -4 6 -19 10 -35 10 -15 -1 -33 2 -39 6 -7 4 -20 3
-30 -2 -10 -5 -18 -6 -18 -2 0 4 -16 8 -35 9 -18 0 -32 -3 -29 -7 2 -4 -9 -4
-25 1 -19 5 -33 4 -40 -3 -9 -9 -14 -8 -21 3 -5 8 -10 11 -10 5z"/>
</g>
</svg>
